<?xml version="1.0" encoding="UTF-8"?>
<!--Generator: Apple Native CoreSVG 175.5-->
<!DOCTYPE svg
PUBLIC "-//W3C//DTD SVG 1.1//EN"
       "http://www.w3.org/Graphics/SVG/1.1/DTD/svg11.dtd">
<svg version="1.1" xmlns="http://www.w3.org/2000/svg" xmlns:xlink="http://www.w3.org/1999/xlink" width="3300" height="2200">
 <!--glyph: "", point size: 100.0, font version: "18.0d12e2", template writer version: "101"-->
 <style>.monochrome-0 {fill:#000000}
.monochrome-1 {fill:#000000}

.hierarchical-0:primary {fill:#212121}
.hierarchical-1:secondary {fill:#4D4D4D}

.SFSymbolsPreview212121 {fill:#212121;opacity:1.0}
.SFSymbolsPreview4D4D4D {fill:#4D4D4D;opacity:1.0}
</style>
 <g id="Notes">
  <rect height="2200" id="artboard" style="fill:white;opacity:1" width="3300" x="0" y="0"/>
  <line style="fill:none;stroke:black;opacity:1;stroke-width:0.5;" x1="263" x2="3036" y1="292" y2="292"/>
  <text style="stroke:none;fill:black;font-family:sans-serif;font-size:13;font-weight:bold;" transform="matrix(1 0 0 1 263 322)">Weight/Scale Variations</text>
  <text style="stroke:none;fill:black;font-family:sans-serif;font-size:13;text-anchor:middle;" transform="matrix(1 0 0 1 559.711 322)">Ultralight</text>
  <text style="stroke:none;fill:black;font-family:sans-serif;font-size:13;text-anchor:middle;" transform="matrix(1 0 0 1 856.422 322)">Thin</text>
  <text style="stroke:none;fill:black;font-family:sans-serif;font-size:13;text-anchor:middle;" transform="matrix(1 0 0 1 1153.13 322)">Light</text>
  <text style="stroke:none;fill:black;font-family:sans-serif;font-size:13;text-anchor:middle;" transform="matrix(1 0 0 1 1449.84 322)">Regular</text>
  <text style="stroke:none;fill:black;font-family:sans-serif;font-size:13;text-anchor:middle;" transform="matrix(1 0 0 1 1746.56 322)">Medium</text>
  <text style="stroke:none;fill:black;font-family:sans-serif;font-size:13;text-anchor:middle;" transform="matrix(1 0 0 1 2043.27 322)">Semibold</text>
  <text style="stroke:none;fill:black;font-family:sans-serif;font-size:13;text-anchor:middle;" transform="matrix(1 0 0 1 2339.98 322)">Bold</text>
  <text style="stroke:none;fill:black;font-family:sans-serif;font-size:13;text-anchor:middle;" transform="matrix(1 0 0 1 2636.69 322)">Heavy</text>
  <text style="stroke:none;fill:black;font-family:sans-serif;font-size:13;text-anchor:middle;" transform="matrix(1 0 0 1 2933.4 322)">Black</text>
  <line style="fill:none;stroke:black;opacity:1;stroke-width:0.5;" x1="263" x2="3036" y1="1903" y2="1903"/>
  <g transform="matrix(1 0 0 1 263 1933)">
   <path d="M9.24805 0.830078C13.5547 0.830078 17.1387-2.74414 17.1387-7.05078C17.1387-11.3574 13.5449-14.9316 9.23828-14.9316C4.94141-14.9316 1.36719-11.3574 1.36719-7.05078C1.36719-2.74414 4.95117 0.830078 9.24805 0.830078ZM9.24805-0.654297C5.70312-0.654297 2.87109-3.49609 2.87109-7.05078C2.87109-10.6055 5.69336-13.4473 9.23828-13.4473C12.793-13.4473 15.6445-10.6055 15.6445-7.05078C15.6445-3.49609 12.8027-0.654297 9.24805-0.654297ZM5.6543-7.05078C5.6543-6.62109 5.95703-6.32812 6.40625-6.32812L8.50586-6.32812L8.50586-4.20898C8.50586-3.76953 8.79883-3.4668 9.22852-3.4668C9.67773-3.4668 9.9707-3.76953 9.9707-4.20898L9.9707-6.32812L12.0898-6.32812C12.5293-6.32812 12.832-6.62109 12.832-7.05078C12.832-7.49023 12.5293-7.79297 12.0898-7.79297L9.9707-7.79297L9.9707-9.90234C9.9707-10.3516 9.67773-10.6543 9.22852-10.6543C8.79883-10.6543 8.50586-10.3516 8.50586-9.90234L8.50586-7.79297L6.40625-7.79297C5.95703-7.79297 5.6543-7.49023 5.6543-7.05078Z"/>
  </g>
  <g transform="matrix(1 0 0 1 281.867 1933)">
   <path d="M11.709 2.91016C17.1582 2.91016 21.6699-1.61133 21.6699-7.05078C21.6699-12.5 17.1484-17.0117 11.6992-17.0117C6.25977-17.0117 1.74805-12.5 1.74805-7.05078C1.74805-1.61133 6.26953 2.91016 11.709 2.91016ZM11.709 1.25C7.09961 1.25 3.41797-2.44141 3.41797-7.05078C3.41797-11.6602 7.08984-15.3516 11.6992-15.3516C16.3086-15.3516 20.0098-11.6602 20.0098-7.05078C20.0098-2.44141 16.3184 1.25 11.709 1.25ZM7.17773-7.05078C7.17773-6.57227 7.50977-6.25 8.00781-6.25L10.8789-6.25L10.8789-3.36914C10.8789-2.88086 11.2109-2.53906 11.6895-2.53906C12.1777-2.53906 12.5195-2.87109 12.5195-3.36914L12.5195-6.25L15.4004-6.25C15.8887-6.25 16.2305-6.57227 16.2305-7.05078C16.2305-7.53906 15.8887-7.88086 15.4004-7.88086L12.5195-7.88086L12.5195-10.752C12.5195-11.25 12.1777-11.5918 11.6895-11.5918C11.2109-11.5918 10.8789-11.25 10.8789-10.752L10.8789-7.88086L8.00781-7.88086C7.50977-7.88086 7.17773-7.53906 7.17773-7.05078Z"/>
  </g>
  <g transform="matrix(1 0 0 1 305.646 1933)">
   <path d="M14.9707 5.66406C21.9336 5.66406 27.6953-0.0976562 27.6953-7.05078C27.6953-14.0137 21.9238-19.7754 14.9609-19.7754C8.00781-19.7754 2.25586-14.0137 2.25586-7.05078C2.25586-0.0976562 8.01758 5.66406 14.9707 5.66406ZM14.9707 3.84766C8.93555 3.84766 4.08203-1.01562 4.08203-7.05078C4.08203-13.0957 8.92578-17.9492 14.9609-17.9492C21.0059-17.9492 25.8691-13.0957 25.8691-7.05078C25.8691-1.01562 21.0156 3.84766 14.9707 3.84766ZM9.19922-7.05078C9.19922-6.5332 9.57031-6.17188 10.1172-6.17188L14.0625-6.17188L14.0625-2.2168C14.0625-1.67969 14.4336-1.29883 14.9512-1.29883C15.4883-1.29883 15.8594-1.66992 15.8594-2.2168L15.8594-6.17188L19.8145-6.17188C20.3516-6.17188 20.7324-6.5332 20.7324-7.05078C20.7324-7.59766 20.3613-7.96875 19.8145-7.96875L15.8594-7.96875L15.8594-11.9141C15.8594-12.4609 15.4883-12.8418 14.9512-12.8418C14.4336-12.8418 14.0625-12.4609 14.0625-11.9141L14.0625-7.96875L10.1172-7.96875C9.57031-7.96875 9.19922-7.59766 9.19922-7.05078Z"/>
  </g>
  <text style="stroke:none;fill:black;font-family:sans-serif;font-size:13;font-weight:bold;" transform="matrix(1 0 0 1 263 1953)">Design Variations</text>
  <text style="stroke:none;fill:black;font-family:sans-serif;font-size:13;" transform="matrix(1 0 0 1 263 1971)">Symbols are supported in up to nine weights and three scales.</text>
  <text style="stroke:none;fill:black;font-family:sans-serif;font-size:13;" transform="matrix(1 0 0 1 263 1989)">For optimal layout with text and other symbols, vertically align</text>
  <text style="stroke:none;fill:black;font-family:sans-serif;font-size:13;" transform="matrix(1 0 0 1 263 2007)">symbols with the adjacent text.</text>
  <line style="fill:none;stroke:#00AEEF;stroke-width:0.5;opacity:1.0;" x1="776" x2="776" y1="1919" y2="1933"/>
  <g transform="matrix(1 0 0 1 776 1933)">
   <path d="M3.31055 0.15625C3.82812 0.15625 4.08203-0.0390625 4.26758-0.585938L5.52734-4.0332L11.2891-4.0332L12.5488-0.585938C12.7344-0.0390625 12.9883 0.15625 13.4961 0.15625C14.0137 0.15625 14.3457-0.15625 14.3457-0.644531C14.3457-0.810547 14.3164-0.966797 14.2383-1.17188L9.6582-13.3691C9.43359-13.9648 9.0332-14.2676 8.4082-14.2676C7.80273-14.2676 7.39258-13.9746 7.17773-13.3789L2.59766-1.16211C2.51953-0.957031 2.49023-0.800781 2.49023-0.634766C2.49023-0.146484 2.80273 0.15625 3.31055 0.15625ZM6.00586-5.51758L8.37891-12.0898L8.42773-12.0898L10.8008-5.51758Z"/>
  </g>
  <line style="fill:none;stroke:#00AEEF;stroke-width:0.5;opacity:1.0;" x1="793.197" x2="793.197" y1="1919" y2="1933"/>
  <text style="stroke:none;fill:black;font-family:sans-serif;font-size:13;font-weight:bold;" transform="matrix(1 0 0 1 776 1953)">Margins</text>
  <text style="stroke:none;fill:black;font-family:sans-serif;font-size:13;" transform="matrix(1 0 0 1 776 1971)">Leading and trailing margins on the left and right side of each symbol</text>
  <text style="stroke:none;fill:black;font-family:sans-serif;font-size:13;" transform="matrix(1 0 0 1 776 1989)">can be adjusted by modifying the x-location of the margin guidelines.</text>
  <text style="stroke:none;fill:black;font-family:sans-serif;font-size:13;" transform="matrix(1 0 0 1 776 2007)">Modifications are automatically applied proportionally to all</text>
  <text style="stroke:none;fill:black;font-family:sans-serif;font-size:13;" transform="matrix(1 0 0 1 776 2025)">scales and weights.</text>
  <g transform="matrix(1 0 0 1 1289 1933)">
   <path d="M2.8418 1.86523L4.54102 3.57422C5.40039 4.44336 6.38672 4.38477 7.31445 3.35938L18.0078-8.42773L17.041-9.4043L6.42578 2.27539C6.07422 2.67578 5.74219 2.77344 5.27344 2.30469L4.10156 1.14258C3.63281 0.683594 3.74023 0.341797 4.14062-0.0195312L15.6152-10.8203L14.6387-11.7871L3.04688-0.898438C2.06055 0.0195312 1.98242 0.996094 2.8418 1.86523ZM9.25781-16.3281C8.83789-15.918 8.80859-15.3418 9.04297-14.9512C9.27734-14.5898 9.73633-14.3555 10.3809-14.5215C11.8457-14.8633 13.3691-14.9219 14.7949-13.9844L14.209-12.5293C13.8672-11.6992 14.043-11.1133 14.5801-10.5664L16.875-8.25195C17.3633-7.76367 17.7734-7.74414 18.3398-7.8418L19.4043-8.03711L20.0684-7.36328L20.0293-6.80664C19.9902-6.30859 20.1172-5.92773 20.6055-5.44922L21.3672-4.70703C21.8457-4.22852 22.4609-4.19922 22.9297-4.66797L25.8398-7.58789C26.3086-8.05664 26.2891-8.65234 25.8105-9.13086L25.0391-9.89258C24.5605-10.3711 24.1895-10.5273 23.7109-10.4883L23.1348-10.4395L22.4902-11.0742L22.7344-12.1973C22.8613-12.7637 22.7051-13.2031 22.1191-13.7891L19.9219-15.9766C16.582-19.2969 12.1484-19.2188 9.25781-16.3281ZM10.752-15.957C13.1836-17.7344 16.4746-17.4316 18.7012-15.2051L21.1328-12.793C21.3672-12.5586 21.4062-12.373 21.3379-12.0312L21.0156-10.5469L22.5195-9.0625L23.5059-9.12109C23.7598-9.13086 23.8379-9.11133 24.0332-8.91602L24.6094-8.33984L22.168-5.89844L21.5918-6.47461C21.3965-6.66992 21.3672-6.74805 21.377-7.01172L21.4453-7.98828L19.9512-9.47266L18.4277-9.21875C18.1055-9.15039 17.959-9.17969 17.7148-9.41406L15.7129-11.416C15.459-11.6504 15.4297-11.8164 15.5859-12.1875L16.4648-14.2773C14.9023-15.7324 12.8711-16.3574 10.8398-15.7617C10.6836-15.7227 10.625-15.8496 10.752-15.957Z"/>
  </g>
  <text style="stroke:none;fill:black;font-family:sans-serif;font-size:13;font-weight:bold;" transform="matrix(1 0 0 1 1289 1953)">Exporting</text>
  <text style="stroke:none;fill:black;font-family:sans-serif;font-size:13;" transform="matrix(1 0 0 1 1289 1971)">Symbols should be outlined when exporting to ensure the</text>
  <text style="stroke:none;fill:black;font-family:sans-serif;font-size:13;" transform="matrix(1 0 0 1 1289 1989)">design is preserved when submitting to Xcode.</text>
  <text id="template-version" style="stroke:none;fill:black;font-family:sans-serif;font-size:13;text-anchor:end;" transform="matrix(1 0 0 1 3036 1933)">Template v.4.0</text>
  <text style="stroke:none;fill:black;font-family:sans-serif;font-size:13;text-anchor:end;" transform="matrix(1 0 0 1 3036 1951)">Requires Xcode 14 or greater</text>
  <text id="descriptive-name" style="stroke:none;fill:black;font-family:sans-serif;font-size:13;text-anchor:end;" transform="matrix(1 0 0 1 3036 1969)">Generated from spaceship.fill</text>
  <text style="stroke:none;fill:black;font-family:sans-serif;font-size:13;text-anchor:end;" transform="matrix(1 0 0 1 3036 1987)">Typeset at 100 points</text>
  <text style="stroke:none;fill:black;font-family:sans-serif;font-size:13;" transform="matrix(1 0 0 1 263 726)">Small</text>
  <text style="stroke:none;fill:black;font-family:sans-serif;font-size:13;" transform="matrix(1 0 0 1 263 1156)">Medium</text>
  <text style="stroke:none;fill:black;font-family:sans-serif;font-size:13;" transform="matrix(1 0 0 1 263 1586)">Large</text>
 </g>
 <g id="Guides">
  <g id="H-reference" style="fill:#27AAE1;stroke:none;" transform="matrix(1 0 0 1 339 696)">
   <path d="M0.993654 0L3.63775 0L29.3281-67.1323L30.0303-67.1323L30.0303-70.459L28.1226-70.459ZM11.6885-24.4799L46.9815-24.4799L46.2315-26.7285L12.4385-26.7285ZM55.1196 0L57.7637 0L30.6382-70.459L29.4326-70.459L29.4326-67.1323Z"/>
  </g>
  <line id="Baseline-S" style="fill:none;stroke:#27AAE1;opacity:1;stroke-width:0.5;" x1="263" x2="3036" y1="696" y2="696"/>
  <line id="Capline-S" style="fill:none;stroke:#27AAE1;opacity:1;stroke-width:0.5;" x1="263" x2="3036" y1="625.541" y2="625.541"/>
  <g id="H-reference" style="fill:#27AAE1;stroke:none;" transform="matrix(1 0 0 1 339 1126)">
   <path d="M0.993654 0L3.63775 0L29.3281-67.1323L30.0303-67.1323L30.0303-70.459L28.1226-70.459ZM11.6885-24.4799L46.9815-24.4799L46.2315-26.7285L12.4385-26.7285ZM55.1196 0L57.7637 0L30.6382-70.459L29.4326-70.459L29.4326-67.1323Z"/>
  </g>
  <line id="Baseline-M" style="fill:none;stroke:#27AAE1;opacity:1;stroke-width:0.5;" x1="263" x2="3036" y1="1126" y2="1126"/>
  <line id="Capline-M" style="fill:none;stroke:#27AAE1;opacity:1;stroke-width:0.5;" x1="263" x2="3036" y1="1055.54" y2="1055.54"/>
  <g id="H-reference" style="fill:#27AAE1;stroke:none;" transform="matrix(1 0 0 1 339 1556)">
   <path d="M0.993654 0L3.63775 0L29.3281-67.1323L30.0303-67.1323L30.0303-70.459L28.1226-70.459ZM11.6885-24.4799L46.9815-24.4799L46.2315-26.7285L12.4385-26.7285ZM55.1196 0L57.7637 0L30.6382-70.459L29.4326-70.459L29.4326-67.1323Z"/>
  </g>
  <line id="Baseline-L" style="fill:none;stroke:#27AAE1;opacity:1;stroke-width:0.5;" x1="263" x2="3036" y1="1556" y2="1556"/>
  <line id="Capline-L" style="fill:none;stroke:#27AAE1;opacity:1;stroke-width:0.5;" x1="263" x2="3036" y1="1485.54" y2="1485.54"/>
  <line id="left-margin-Ultralight-S" style="fill:none;stroke:#00AEEF;stroke-width:0.5;opacity:1.0;" x1="515.351" x2="515.351" y1="600.785" y2="720.121"/>
  <line id="right-margin-Ultralight-S" style="fill:none;stroke:#FF3B30;stroke-width:0.5;opacity:1.0;" x1="604.071" x2="604.071" y1="600.785" y2="720.121"/>
  <line id="left-margin-Regular-S" style="fill:none;stroke:#00AEEF;stroke-width:0.5;opacity:1.0;" x1="1401.75" x2="1401.75" y1="600.785" y2="720.121"/>
  <line id="right-margin-Regular-S" style="fill:none;stroke:#00AEEF;stroke-width:0.5;opacity:1.0;" x1="1497.94" x2="1497.94" y1="600.785" y2="720.121"/>
  <line id="left-margin-Black-S" style="fill:none;stroke:#00AEEF;stroke-width:0.5;opacity:1.0;" x1="2883.2" x2="2883.2" y1="600.785" y2="720.121"/>
  <line id="right-margin-Black-S" style="fill:none;stroke:#00AEEF;stroke-width:0.5;opacity:1.0;" x1="2983.6" x2="2983.6" y1="600.785" y2="720.121"/>
 </g>
 <g id="Symbols">
  <g id="Black-L" transform="matrix(1 0 0 1 2850.89 1556)">
   <path class="monochrome-0 hierarchical-0:primary SFSymbolsPreview212121" d="M157.721-110.628C155.626-112.723 152.815-113.911 149.881-114.551C146.921-115.197 143.536-115.351 139.935-115.143C132.733-114.726 124.131-112.823 115.211-109.802C97.408-103.771 77.5241-93.0012 64.0747-79.4002C62.7966-78.1078 61.5426-76.7398 60.318-75.3166L60.2946-75.3141C59.2099-75.2057 57.6631-75.0466 55.808-74.8435C52.1015-74.438 47.1448-73.8546 42.1762-73.1461C37.2361-72.4419 32.1691-71.598 28.2894-70.6595C26.3798-70.1974 24.5609-69.667 23.1458-69.0435C22.4577-68.7403 21.6308-68.3155 20.9102-67.7117C20.2737-67.1781 18.9891-65.8832 18.9889-63.8126C18.9887-60.9563 20.7938-59.043 22.1022-57.9798C23.4657-56.8722 25.1758-55.9671 26.6403-55.235C27.2108-54.9497 27.7486-54.6882 28.2663-54.4363L28.2713-54.4341C29.2333-53.9663 30.1263-53.5321 31.0309-53.0421C32.3955-52.3028 33.3114-51.6772 33.8554-51.1332C35.4245-49.5641 37.1296-47.0405 38.5269-44.6915C39.0394-43.8294 39.4866-43.0325 39.8435-42.3762C38.5635-39.6328 37.358-36.9883 36.6369-34.6074C35.7249-31.5966 35.3252-28.2126 36.9815-24.8998C37.4786-23.9056 38.4477-22.6885 39.3349-21.6289C40.3357-20.4336 41.6273-18.985 43.0965-17.3919C46.0408-14.1997 49.8002-10.3177 53.6055-6.51248C57.4107-2.70724 61.2926 1.05221 64.4849 3.99648C66.078 5.466 67.5266 6.75731 68.7219 7.75841C69.7817 8.64559 70.9989 9.61469 71.9928 10.1118C75.0339 11.6323 77.9376 11.6379 81.0386 10.7405C83.4292 10.0483 86.1776 8.74076 89.3829 7.15897C90.0455 7.52393 90.8455 7.97828 91.7086 8.49607C94.0957 9.92834 96.654 11.6654 98.2267 13.2381C98.7707 13.7821 99.3964 14.6977 100.135 16.0624C100.625 16.967 101.059 17.8594 101.527 18.8213C101.78 19.3405 102.042 19.8806 102.328 20.453C103.06 21.9173 103.965 23.6277 105.073 24.991C106.136 26.2997 108.049 28.1043 110.906 28.1046C112.978 28.1049 114.273 26.8183 114.807 26.181C115.41 25.4599 115.834 24.6323 116.137 23.9438C116.76 22.5278 117.289 20.7079 117.75 18.797C118.686 14.9148 119.526 9.84448 120.227 4.90103C120.932-0.0711034 121.512-5.03083 121.915-8.73979C122.117-10.5966 122.275-12.1445 122.383-13.2297L122.384-13.2413C123.807-14.4548 125.177-15.6957 126.473-16.9586C140.026-30.1635 150.798-50.065 156.843-67.9243C159.873-76.8763 161.788-85.5249 162.216-92.7646C162.43-96.3831 162.281-99.7848 161.641-102.757C161.006-105.7 159.822-108.527 157.721-110.628ZM137.61-72.4714C137.61-61.0449 128.346-51.7817 116.92-51.7817C105.493-51.7817 96.2303-61.0449 96.2303-72.4714C96.2303-83.8979 105.493-93.161 116.92-93.161C128.346-93.161 137.61-83.8979 137.61-72.4714ZM129.334-72.4714C129.334-65.6154 123.776-60.0576 116.92-60.0576C110.064-60.0576 104.506-65.6154 104.506-72.4714C104.506-79.3274 110.064-84.8852 116.92-84.8852C123.776-84.8852 129.334-79.3274 129.334-72.4714Z"/>
   <path class="monochrome-1 hierarchical-1:secondary SFSymbolsPreview4D4D4D" d="M57.3892 12.1744C57.0201 11.0577 56.2052 9.9449 55.6753 9.24724C55.0104 8.37166 54.1597 7.35759 53.2121 6.28393C51.3095 4.12779 48.8678 1.56421 46.3886-0.913586C43.9092-3.39166 41.3445-5.8311 39.1889-7.73262C38.1155-8.67966 37.1023-9.52959 36.2286-10.1941C35.5313-10.7243 34.4253-11.5354 33.32-11.9064C31.3194-12.5779 29.688-11.6761 29.111-11.3103C28.387-10.8515 27.7914-10.2617 27.3481-9.77041C26.4301-8.75303 25.4846-7.38697 24.5803-5.91745C22.7416-2.92931 20.6994 1.10379 18.9308 5.27179C17.1689 9.42434 15.5953 13.906 14.7868 17.7777C14.3854 19.6999 14.1319 21.6588 14.2157 23.4395C14.2935 25.093 14.6961 27.3761 16.3981 29.0781C18.0996 30.7797 20.3818 31.1827 22.0352 31.2608C23.8158 31.3452 25.7744 31.0919 27.6963 30.6911C31.5674 29.8837 36.0482 28.311 40.2 26.5499C44.3677 24.7819 48.4008 22.7399 51.3897 20.9008C52.8598 19.9959 54.2262 19.05 55.2441 18.1314C55.736 17.6875 56.3255 17.0922 56.7842 16.3692C57.1503 15.7921 58.0485 14.1692 57.3892 12.1744Z"/>
  </g>
  <g id="Regular-L" transform="matrix(1 0 0 1 1372.03 1556)">
   <path class="monochrome-0 hierarchical-0:primary SFSymbolsPreview212121" d="M153.026-110.628C150.931-112.723 148.121-113.911 145.187-114.551C142.226-115.197 138.842-115.351 135.241-115.143C128.039-114.726 119.436-112.823 110.516-109.802C92.7136-103.771 72.8298-93.0012 59.3804-79.4002C58.1023-78.1078 56.8483-76.7398 55.6237-75.3166L55.6003-75.3141C54.5156-75.2057 52.9688-75.0466 51.1136-74.8435C47.4072-74.438 42.4505-73.8546 37.4819-73.1461C32.5418-72.4419 27.4747-71.598 23.5951-70.6595C21.6854-70.1974 19.8666-69.667 18.4515-69.0435C17.7634-68.7403 16.9365-68.3155 16.2159-67.7117C15.5794-67.1781 14.2948-65.8832 14.2946-63.8126C14.2944-60.9563 16.0995-59.043 17.4079-57.9798C18.7713-56.8722 20.4815-55.9671 21.946-55.235C22.5165-54.9497 23.0543-54.6882 23.572-54.4363L23.5769-54.4341C24.539-53.9663 25.432-53.5321 26.3365-53.0421C27.7012-52.3028 28.6171-51.6772 29.1611-51.1332C30.7302-49.5641 32.4353-47.0405 33.8325-44.6915C34.3451-43.8294 34.7923-43.0325 35.1492-42.3762C33.8692-39.6328 32.6637-36.9883 31.9426-34.6074C31.0306-31.5966 30.6309-28.2126 32.2872-24.8998C32.7843-23.9056 33.7534-22.6885 34.6405-21.6289C35.6414-20.4336 36.9329-18.985 38.4022-17.3919C41.3465-14.1997 45.1059-10.3177 48.9112-6.51248C52.7164-2.70724 56.5983 1.05221 59.7906 3.99648C61.3837 5.466 62.8323 6.75731 64.0276 7.75841C65.0874 8.64559 66.3045 9.61469 67.2985 10.1118C70.3396 11.6323 73.2433 11.6379 76.3443 10.7405C78.7349 10.0483 81.4833 8.74076 84.6885 7.15897C85.3512 7.52393 86.1512 7.97828 87.0143 8.49607C89.4014 9.92834 91.9597 11.6654 93.5324 13.2381C94.0764 13.7821 94.7021 14.6977 95.4411 16.0624C95.931 16.967 96.3649 17.8594 96.8325 18.8213C97.0852 19.3405 97.3476 19.8806 97.6339 20.453C98.3661 21.9173 99.2709 23.6277 100.379 24.991C101.442 26.2997 103.355 28.1043 106.211 28.1046C108.284 28.1049 109.579 26.8183 110.112 26.181C110.716 25.4599 111.14 24.6323 111.443 23.9438C112.066 22.5278 112.595 20.7079 113.055 18.797C113.991 14.9148 114.832 9.84448 115.533 4.90103C116.238-0.0711034 116.818-5.03083 117.221-8.73979C117.422-10.5966 117.58-12.1445 117.688-13.2297L117.689-13.2413C119.113-14.4548 120.483-15.6957 121.779-16.9586C135.331-30.1635 146.103-50.065 152.148-67.9243C155.178-76.8763 157.093-85.5249 157.522-92.7646C157.736-96.3831 157.587-99.7848 156.946-102.757C156.312-105.7 155.128-108.527 153.026-110.628ZM132.915-72.4714C132.915-61.0449 123.652-51.7817 112.226-51.7817C100.799-51.7817 91.536-61.0449 91.536-72.4714C91.536-83.8979 100.799-93.161 112.226-93.161C123.652-93.161 132.915-83.8979 132.915-72.4714ZM124.639-72.4714C124.639-65.6154 119.082-60.0576 112.226-60.0576C105.37-60.0576 99.8118-65.6154 99.8118-72.4714C99.8118-79.3274 105.37-84.8852 112.226-84.8852C119.082-84.8852 124.639-79.3274 124.639-72.4714Z"/>
   <path class="monochrome-1 hierarchical-1:secondary SFSymbolsPreview4D4D4D" d="M52.6949 12.1744C52.3258 11.0577 51.5109 9.9449 50.9809 9.24724C50.3161 8.37166 49.4654 7.35759 48.5178 6.28393C46.6152 4.12779 44.1735 1.56421 41.6943-0.913586C39.2149-3.39166 36.6502-5.8311 34.4946-7.73262C33.4212-8.67966 32.408-9.52959 31.5343-10.1941C30.8369-10.7243 29.731-11.5354 28.6256-11.9064C26.6251-12.5779 24.9937-11.6761 24.4167-11.3103C23.6927-10.8515 23.0971-10.2617 22.6537-9.77041C21.7358-8.75303 20.7903-7.38697 19.886-5.91745C18.0473-2.92931 16.0051 1.10379 14.2365 5.27179C12.4746 9.42434 10.901 13.906 10.0925 17.7777C9.6911 19.6999 9.43758 21.6588 9.52142 23.4395C9.59921 25.093 10.0018 27.3761 11.7038 29.0781C13.4053 30.7797 15.6875 31.1827 17.3408 31.2608C19.1215 31.3452 21.0801 31.0919 23.002 30.6911C26.8731 29.8837 31.3539 28.311 35.5056 26.5499C39.6734 24.7819 43.7065 22.7399 46.6954 20.9008C48.1655 19.9959 49.5318 19.05 50.5498 18.1314C51.0416 17.6875 51.6312 17.0922 52.0899 16.3692C52.456 15.7921 53.3542 14.1692 52.6949 12.1744Z"/>
  </g>
  <g id="Ultralight-L" transform="matrix(1 0 0 1 486.609 1556)">
   <path class="monochrome-0 hierarchical-0:primary SFSymbolsPreview212121" d="M148.317-110.628C146.222-112.723 143.411-113.911 140.478-114.551C137.517-115.197 134.132-115.351 130.532-115.143C123.329-114.726 114.727-112.823 105.807-109.802C88.0043-103.771 68.1204-93.0012 54.671-79.4002C53.393-78.1078 52.1389-76.7398 50.9144-75.3166L50.8909-75.3141C49.8062-75.2057 48.2595-75.0466 46.4043-74.8435C42.6978-74.438 37.7411-73.8546 32.7726-73.1461C27.8324-72.4419 22.7654-71.598 18.8858-70.6595C16.9761-70.1974 15.1573-69.667 13.7421-69.0435C13.0541-68.7403 12.2271-68.3155 11.5066-67.7117C10.87-67.1781 9.58542-65.8832 9.58526-63.8126C9.58501-60.9563 11.3902-59.043 12.6986-57.9798C14.062-56.8722 15.7721-55.9671 17.2367-55.235C17.8072-54.9497 18.3449-54.6882 18.8626-54.4363L18.8676-54.4341C19.8296-53.9663 20.7226-53.5321 21.6272-53.0421C22.9919-52.3028 23.9077-51.6772 24.4517-51.1332C26.0208-49.5641 27.7259-47.0405 29.1232-44.6915C29.6357-43.8294 30.0829-43.0325 30.4399-42.3762C29.1599-39.6328 27.9544-36.9883 27.2333-34.6074C26.3213-31.5966 25.9215-28.2126 27.5778-24.8998C28.0749-23.9056 29.044-22.6885 29.9312-21.6289C30.932-20.4336 32.2236-18.985 33.6928-17.3919C36.6371-14.1997 40.3966-10.3177 44.2018-6.51248C48.007-2.70724 51.889 1.05221 55.0813 3.99648C56.6744 5.466 58.1229 6.75731 59.3182 7.75841C60.3781 8.64559 61.5952 9.61469 62.5891 10.1118C65.6302 11.6323 68.5339 11.6379 71.6349 10.7405C74.0255 10.0483 76.7739 8.74076 79.9792 7.15897C80.6418 7.52393 81.4418 7.97828 82.305 8.49607C84.692 9.92834 87.2504 11.6654 88.823 13.2381C89.367 13.7821 89.9927 14.6977 90.7317 16.0624C91.2217 16.967 91.6556 17.8594 92.1232 18.8213C92.3759 19.3405 92.6382 19.8806 92.9246 20.453C93.6567 21.9173 94.5615 23.6277 95.6694 24.991C96.7326 26.2997 98.6457 28.1043 101.502 28.1046C103.574 28.1049 104.87 26.8183 105.403 26.181C106.006 25.4599 106.431 24.6323 106.734 23.9438C107.356 22.5278 107.886 20.7079 108.346 18.797C109.282 14.9148 110.122 9.84448 110.823 4.90103C111.528-0.0711034 112.108-5.03083 112.511-8.73979C112.713-10.5966 112.871-12.1445 112.979-13.2297L112.98-13.2413C114.404-14.4548 115.774-15.6957 117.07-16.9586C130.622-30.1635 141.394-50.065 147.439-67.9243C150.469-76.8763 152.384-85.5249 152.812-92.7646C153.026-96.3831 152.878-99.7848 152.237-102.757C151.603-105.7 150.418-108.527 148.317-110.628ZM128.206-72.4714C128.206-61.0449 118.943-51.7817 107.516-51.7817C96.0898-51.7817 86.8266-61.0449 86.8266-72.4714C86.8266-83.8979 96.0898-93.161 107.516-93.161C118.943-93.161 128.206-83.8979 128.206-72.4714ZM119.93-72.4714C119.93-65.6154 114.372-60.0576 107.516-60.0576C100.66-60.0576 95.1025-65.6154 95.1025-72.4714C95.1025-79.3274 100.66-84.8852 107.516-84.8852C114.372-84.8852 119.93-79.3274 119.93-72.4714Z"/>
   <path class="monochrome-1 hierarchical-1:secondary SFSymbolsPreview4D4D4D" d="M47.9855 12.1744C47.6164 11.0577 46.8015 9.9449 46.2716 9.24724C45.6068 8.37166 44.756 7.35759 43.8084 6.28393C41.9058 4.12779 39.4642 1.56421 36.985-0.913586C34.5055-3.39166 31.9408-5.8311 29.7853-7.73262C28.7119-8.67966 27.6986-9.52959 26.825-10.1941C26.1276-10.7243 25.0217-11.5354 23.9163-11.9064C21.9157-12.5779 20.2844-11.6761 19.7074-11.3103C18.9834-10.8515 18.3878-10.2617 17.9444-9.77041C17.0265-8.75303 16.0809-7.38697 15.1766-5.91745C13.3379-2.92931 11.2957 1.10379 9.52716 5.27179C7.76528 9.42434 6.19163 13.906 5.38313 17.7777C4.98175 19.6999 4.72823 21.6588 4.81207 23.4395C4.88986 25.093 5.29246 27.3761 6.99444 29.0781C8.69593 30.7797 10.9781 31.1827 12.6315 31.2608C14.4122 31.3452 16.3707 31.0919 18.2926 30.6911C22.1637 29.8837 26.6446 28.311 30.7963 26.5499C34.964 24.7819 38.9971 22.7399 41.9861 20.9008C43.4562 19.9959 44.8225 19.05 45.8404 18.1314C46.3323 17.6875 46.9218 17.0922 47.3806 16.3692C47.7466 15.7921 48.6448 14.1692 47.9855 12.1744Z"/>
  </g>
  <g id="Black-M" transform="matrix(1 0 0 1 2867 1126)">
   <path class="monochrome-0 hierarchical-0:primary SFSymbolsPreview212121" d="M126.428-95.5483C124.752-97.2244 122.503-98.1752 120.157-98.6871C117.788-99.2038 115.08-99.3272 112.2-99.1604C106.438-98.8268 99.5561-97.3047 92.4201-94.8874C78.1779-90.0631 62.2708-81.447 51.5113-70.5662C50.4889-69.5322 49.4856-68.4378 48.506-67.2993L48.4872-67.2973C47.6195-67.2106 46.3821-67.0832 44.8979-66.9208C41.9327-66.5964 37.9674-66.1296 33.9925-65.5629C30.0404-64.9995 25.9868-64.3244 22.8831-63.5736C21.3554-63.204 19.9003-62.7796 18.7682-62.2808C18.2177-62.0383 17.5562-61.6984 16.9797-61.2153C16.4705-60.7885 15.4428-59.7526 15.4427-58.0961C15.4425-55.8111 16.8866-54.2804 17.9333-53.4298C19.0241-52.5438 20.3922-51.8197 21.5638-51.234C22.0202-51.0058 22.4504-50.7966 22.8646-50.5951L22.8686-50.5933C23.6382-50.219 24.3526-49.8717 25.0762-49.4797C26.168-48.8883 26.9007-48.3877 27.3359-47.9525C28.5912-46.6973 29.9552-44.6784 31.073-42.7992C31.4831-42.1096 31.8408-41.472 32.1264-40.947C31.1024-38.7522 30.138-36.6367 29.5611-34.7319C28.8315-32.3233 28.5117-29.6161 29.8367-26.9658C30.2344-26.1705 31.0097-25.1968 31.7194-24.3491C32.5201-23.3929 33.5534-22.234 34.7288-20.9595C37.0842-18.4057 40.0917-15.3002 43.1359-12.256C46.1801-9.21179 49.2857-6.20423 51.8395-3.84881C53.114-2.6732 54.2728-1.64015 55.2291-0.839269C56.077-0.129531 57.0506 0.645752 57.8458 1.04343C60.2787 2.25988 62.6016 2.26429 65.0824 1.54639C66.9949 0.992676 69.1936-0.0533931 71.7578-1.31883C72.2879-1.02686 72.9279-0.663379 73.6185-0.249145C75.5281 0.896676 77.5748 2.28636 78.8329 3.54451C79.2681 3.97971 79.7687 4.71218 80.3599 5.80393C80.7518 6.52757 81.099 7.2415 81.473 8.01105C81.6752 8.42639 81.8851 8.8585 82.1141 9.31643C82.6999 10.4878 83.4237 11.8561 84.31 12.9468C85.1605 13.9937 86.691 15.4375 88.976 15.4377C90.6339 15.4379 91.6702 14.4086 92.0968 13.8988C92.5797 13.3219 92.9191 12.6599 93.1614 12.109C93.6595 10.9762 94.083 9.52034 94.4514 7.99163C95.2002 4.88586 95.8724 0.829586 96.4332-3.12517C96.997-7.10288 97.4611-11.0707 97.7836-14.0378C97.9449-15.5233 98.0713-16.7616 98.1576-17.6298L98.1585-17.639C99.2975-18.6099 100.393-19.6025 101.43-20.6128C112.272-31.1768 120.89-47.098 125.726-61.3855C128.15-68.5471 129.682-75.4659 130.024-81.2577C130.196-84.1525 130.077-86.8738 129.564-89.2517C129.057-91.6063 128.109-93.8673 126.428-95.5483ZM110.339-65.0231C110.339-55.8819 102.929-48.4714 93.7875-48.4714C84.6463-48.4714 77.2358-55.8819 77.2358-65.0231C77.2358-74.1643 84.6463-81.5748 93.7875-81.5748C102.929-81.5748 110.339-74.1643 110.339-65.0231ZM103.719-65.0231C103.719-59.5383 99.2723-55.0921 93.7875-55.0921C88.3027-55.0921 83.8565-59.5383 83.8565-65.0231C83.8565-70.5079 88.3027-74.9541 93.7875-74.9541C99.2723-74.9541 103.719-70.5079 103.719-65.0231Z"/>
   <path class="monochrome-1 hierarchical-1:secondary SFSymbolsPreview4D4D4D" d="M46.1629 2.69353C45.8676 1.80018 45.2157 0.909917 44.7918 0.351793C44.2599-0.348676 43.5793-1.15993 42.8212-2.01886C41.2991-3.74377 39.3458-5.79463 37.3625-7.77687C35.3789-9.75932 33.3272-11.7109 31.6027-13.2321C30.744-13.9897 29.9334-14.6697 29.2345-15.2013C28.6766-15.6255 27.7918-16.2743 26.9075-16.5711C25.3071-17.1083 24.002-16.3869 23.5404-16.0942C22.9612-15.7272 22.4847-15.2554 22.13-14.8623C21.3957-14.0484 20.6392-12.9556 19.9158-11.78C18.4448-9.38945 16.8111-6.16297 15.3962-2.82857C13.9867 0.493476 12.7278 4.0788 12.081 7.17618C11.7599 8.71394 11.5571 10.2811 11.6241 11.7056C11.6864 13.0284 12.0085 14.8549 13.37 16.2165C14.7312 17.5777 16.557 17.9002 17.8797 17.9626C19.3042 18.0301 20.8711 17.8275 22.4086 17.5069C25.5055 16.8609 29.0901 15.6028 32.4115 14.1939C35.7457 12.7795 38.9722 11.1459 41.3634 9.67461C42.5394 8.95074 43.6325 8.194 44.4468 7.4591C44.8403 7.10401 45.3119 6.62777 45.6789 6.04934C45.9718 5.58766 46.6904 4.28934 46.1629 2.69353Z"/>
  </g>
  <g id="Regular-M" transform="matrix(1 0 0 1 1386.8 1126)">
   <path class="monochrome-0 hierarchical-0:primary SFSymbolsPreview212121" d="M123.076-95.5483C121.399-97.2244 119.151-98.1752 116.804-98.6871C114.436-99.2038 111.728-99.3272 108.847-99.1604C103.085-98.8268 96.2036-97.3047 89.0676-94.8874C74.8254-90.0631 58.9183-81.447 48.1588-70.5662C47.1363-69.5322 46.1331-68.4378 45.1534-67.2993L45.1347-67.2973C44.2669-67.2106 43.0295-67.0832 41.5454-66.9208C38.5802-66.5964 34.6148-66.1296 30.64-65.5629C26.6879-64.9995 22.6342-64.3244 19.5305-63.5736C18.0028-63.204 16.5477-62.7796 15.4156-62.2808C14.8652-62.0383 14.2036-61.6984 13.6272-61.2153C13.118-60.7885 12.0903-59.7526 12.0901-58.0961C12.0899-55.8111 13.5341-54.2804 14.5808-53.4298C15.6715-52.5438 17.0396-51.8197 18.2113-51.234C18.6677-51.0058 19.0979-50.7966 19.512-50.5951L19.516-50.5933C20.2856-50.219 21-49.8717 21.7237-49.4797C22.8154-48.8883 23.5481-48.3877 23.9833-47.9525C25.2386-46.6973 26.6027-44.6784 27.7205-42.7992C28.1305-42.1096 28.4883-41.472 28.7738-40.947C27.7498-38.7522 26.7854-36.6367 26.2085-34.7319C25.4789-32.3233 25.1592-29.6161 26.4842-26.9658C26.8819-26.1705 27.6571-25.1968 28.3669-24.3491C29.1675-23.3929 30.2008-22.234 31.3762-20.9595C33.7316-18.4057 36.7392-15.3002 39.7834-12.256C42.8276-9.21179 45.9331-6.20423 48.4869-3.84881C49.7614-2.6732 50.9203-1.64015 51.8765-0.839269C52.7244-0.129531 53.6981 0.645752 54.4932 1.04343C56.9261 2.25988 59.2491 2.26429 61.7299 1.54639C63.6424 0.992676 65.8411-0.0533931 68.4053-1.31883C68.9354-1.02686 69.5754-0.663379 70.2659-0.249145C72.1755 0.896676 74.2222 2.28636 75.4804 3.54451C75.9156 3.97971 76.4161 4.71218 77.0073 5.80393C77.3993 6.52757 77.7464 7.2415 78.1205 8.01105C78.3226 8.42639 78.5325 8.8585 78.7616 9.31643C79.3473 10.4878 80.0712 11.8561 80.9574 12.9468C81.808 13.9937 83.3385 15.4375 85.6235 15.4377C87.2813 15.4379 88.3177 14.4086 88.7443 13.8988C89.2271 13.3219 89.5665 12.6599 89.8089 12.109C90.307 10.9762 90.7305 9.52034 91.0988 7.99163C91.8476 4.88586 92.5198 0.829586 93.0806-3.12517C93.6445-7.10288 94.1086-11.0707 94.431-14.0378C94.5923-15.5233 94.7188-16.7616 94.8051-17.6298L94.8059-17.639C95.9449-18.6099 97.0409-19.6025 98.0777-20.6128C108.919-31.1768 117.537-47.098 122.373-61.3855C124.797-68.5471 126.329-75.4659 126.672-81.2577C126.843-84.1525 126.724-86.8738 126.212-89.2517C125.704-91.6063 124.757-93.8673 123.076-95.5483ZM106.987-65.0231C106.987-55.8819 99.5761-48.4714 90.435-48.4714C81.2938-48.4714 73.8832-55.8819 73.8832-65.0231C73.8832-74.1643 81.2938-81.5748 90.435-81.5748C99.5761-81.5748 106.987-74.1643 106.987-65.0231ZM100.366-65.0231C100.366-59.5383 95.9198-55.0921 90.435-55.0921C84.9502-55.0921 80.5039-59.5383 80.5039-65.0231C80.5039-70.5079 84.9502-74.9541 90.435-74.9541C95.9198-74.9541 100.366-70.5079 100.366-65.0231Z"/>
   <path class="monochrome-1 hierarchical-1:secondary SFSymbolsPreview4D4D4D" d="M42.8104 2.69353C42.5151 1.80018 41.8632 0.909917 41.4392 0.351793C40.9073-0.348676 40.2267-1.15993 39.4687-2.01886C37.9466-3.74377 35.9933-5.79463 34.0099-7.77687C32.0264-9.75932 29.9746-11.7109 28.2501-13.2321C27.3914-13.9897 26.5808-14.6697 25.8819-15.2013C25.324-15.6255 24.4393-16.2743 23.555-16.5711C21.9545-17.1083 20.6494-16.3869 20.1878-16.0942C19.6086-15.7272 19.1321-15.2554 18.7775-14.8623C18.0431-14.0484 17.2867-12.9556 16.5632-11.78C15.0923-9.38945 13.4585-6.16297 12.0437-2.82857C10.6342 0.493476 9.37523 4.0788 8.72844 7.17618C8.40733 8.71394 8.20452 10.2811 8.27159 11.7056C8.33382 13.0284 8.6559 14.8549 10.0175 16.2165C11.3787 17.5777 13.2044 17.9002 14.5271 17.9626C15.9517 18.0301 17.5185 17.8275 19.056 17.5069C22.1529 16.8609 25.7376 15.6028 29.059 14.1939C32.3931 12.7795 35.6196 11.1459 38.0108 9.67461C39.1869 8.95074 40.2799 8.194 41.0943 7.4591C41.4878 7.10401 41.9594 6.62777 42.3264 6.04934C42.6192 5.58766 43.3378 4.28934 42.8104 2.69353Z"/>
  </g>
  <g id="Ultralight-M" transform="matrix(1 0 0 1 500.884 1126)">
   <path class="monochrome-0 hierarchical-0:primary SFSymbolsPreview212121" d="M118.853-95.5483C117.177-97.2244 114.929-98.1752 112.582-98.6871C110.213-99.2038 107.506-99.3272 104.625-99.1604C98.8632-98.8268 91.9814-97.3047 84.8454-94.8874C70.6032-90.0631 54.6961-81.447 43.9366-70.5662C42.9141-69.5322 41.9109-68.4378 40.9312-67.2993L40.9125-67.2973C40.0447-67.2106 38.8073-67.0832 37.3232-66.9208C34.358-66.5964 30.3927-66.1296 26.4178-65.5629C22.4657-64.9995 18.4121-64.3244 15.3084-63.5736C13.7806-63.204 12.3256-62.7796 11.1934-62.2808C10.643-62.0383 9.98144-61.6984 9.405-61.2153C8.89578-60.7885 7.86809-59.7526 7.86796-58.0961C7.86776-55.8111 9.31189-54.2804 10.3586-53.4298C11.4494-52.5438 12.8175-51.8197 13.9891-51.234C14.4455-51.0058 14.8757-50.7966 15.2898-50.5951L15.2938-50.5933C16.0635-50.219 16.7779-49.8717 17.5015-49.4797C18.5933-48.8883 19.3259-48.3877 19.7611-47.9525C21.0164-46.6973 22.3805-44.6784 23.4983-42.7992C23.9083-42.1096 24.2661-41.472 24.5517-40.947C23.5277-38.7522 22.5632-36.6367 21.9864-34.7319C21.2568-32.3233 20.937-29.6161 22.262-26.9658C22.6597-26.1705 23.435-25.1968 24.1447-24.3491C24.9454-23.3929 25.9786-22.234 27.154-20.9595C29.5095-18.4057 32.517-15.3002 35.5612-12.256C38.6054-9.21179 41.7109-6.20423 44.2648-3.84881C45.5392-2.6732 46.6981-1.64015 47.6543-0.839269C48.5022-0.129531 49.4759 0.645752 50.2711 1.04343C52.7039 2.25988 55.0269 2.26429 57.5077 1.54639C59.4202 0.992676 61.6189-0.0533931 64.1831-1.31883C64.7132-1.02686 65.3532-0.663379 66.0437-0.249145C67.9534 0.896676 70 2.28636 71.2582 3.54451C71.6934 3.97971 72.1939 4.71218 72.7851 5.80393C73.1771 6.52757 73.5242 7.2415 73.8983 8.01105C74.1005 8.42639 74.3103 8.8585 74.5394 9.31643C75.1251 10.4878 75.849 11.8561 76.7353 12.9468C77.5858 13.9937 79.1163 15.4375 81.4013 15.4377C83.0591 15.4379 84.0955 14.4086 84.5221 13.8988C85.005 13.3219 85.3444 12.6599 85.5867 12.109C86.0848 10.9762 86.5083 9.52034 86.8766 7.99163C87.6254 4.88586 88.2976 0.829586 88.8584-3.12517C89.4223-7.10288 89.8864-11.0707 90.2088-14.0378C90.3701-15.5233 90.4966-16.7616 90.5829-17.6298L90.5838-17.639C91.7227-18.6099 92.8187-19.6025 93.8555-20.6128C104.697-31.1768 113.315-47.098 118.151-61.3855C120.575-68.5471 122.107-75.4659 122.45-81.2577C122.621-84.1525 122.502-86.8738 121.989-89.2517C121.482-91.6063 120.534-93.8673 118.853-95.5483ZM102.765-65.0231C102.765-55.8819 95.354-48.4714 86.2128-48.4714C77.0716-48.4714 69.6611-55.8819 69.6611-65.0231C69.6611-74.1643 77.0716-81.5748 86.2128-81.5748C95.354-81.5748 102.765-74.1643 102.765-65.0231ZM96.1438-65.0231C96.1438-59.5383 91.6976-55.0921 86.2128-55.0921C80.728-55.0921 76.2818-59.5383 76.2818-65.0231C76.2818-70.5079 80.728-74.9541 86.2128-74.9541C91.6976-74.9541 96.1438-70.5079 96.1438-65.0231Z"/>
   <path class="monochrome-1 hierarchical-1:secondary SFSymbolsPreview4D4D4D" d="M38.5882 2.69353C38.2929 1.80018 37.641 0.909917 37.217 0.351793C36.6852-0.348676 36.0046-1.15993 35.2465-2.01886C33.7244-3.74377 31.7711-5.79463 29.7877-7.77687C27.8042-9.75932 25.7524-11.7109 24.028-13.2321C23.1693-13.9897 22.3587-14.6697 21.6597-15.2013C21.1018-15.6255 20.2171-16.2743 19.3328-16.5711C17.7323-17.1083 16.4273-16.3869 15.9657-16.0942C15.3864-15.7272 14.91-15.2554 14.5553-14.8623C13.8209-14.0484 13.0645-12.9556 12.3411-11.78C10.8701-9.38945 9.23635-6.16297 7.82148-2.82857C6.41198 0.493476 5.15306 4.0788 4.50626 7.17618C4.18516 8.71394 3.98234 10.2811 4.04941 11.7056C4.11165 13.0284 4.43372 14.8549 5.79531 16.2165C7.1565 17.5777 8.98225 17.9002 10.3049 17.9626C11.7295 18.0301 13.2963 17.8275 14.8339 17.5069C17.9307 16.8609 21.5154 15.6028 24.8368 14.1939C28.171 12.7795 31.3975 11.1459 33.7886 9.67461C34.9647 8.95074 36.0578 8.194 36.8721 7.4591C37.2656 7.10401 37.7372 6.62777 38.1042 6.04934C38.3971 5.58766 39.1156 4.28934 38.5882 2.69353Z"/>
  </g>
  <g id="Black-S" transform="matrix(1 0 0 1 2883.2 696)">
   <path class="monochrome-0 hierarchical-0:primary SFSymbolsPreview212121" d="M95.3702-80.4682C94.113-81.7253 92.4266-82.4384 90.6665-82.8223C88.8902-83.2098 86.8593-83.3024 84.6989-83.1773C80.3774-82.9271 75.2161-81.7855 69.8641-79.9726C59.1825-76.3543 47.2521-69.8922 39.1825-61.7316C38.4157-60.9562 37.6632-60.1354 36.9285-59.2815L36.9144-59.28C36.2636-59.2149 35.3356-59.1194 34.2225-58.9976C31.9986-58.7543 29.0246-58.4042 26.0434-57.9792C23.0793-57.5566 20.0391-57.0503 17.7113-56.4872C16.5655-56.21 15.4742-55.8917 14.6251-55.5176C14.2123-55.3357 13.7161-55.0808 13.2838-54.7185C12.9019-54.3984 12.1311-53.6214 12.131-52.3791C12.1309-50.6653 13.214-49.5173 13.999-48.8794C14.8171-48.2148 15.8432-47.6718 16.7219-47.2325C17.0642-47.0613 17.3868-46.9044 17.6974-46.7533L17.7004-46.752C18.2777-46.4713 18.8135-46.2107 19.3562-45.9168C20.175-45.4732 20.7245-45.0978 21.0509-44.7714C21.9924-43.8299 23.0154-42.3158 23.8538-40.9064C24.1613-40.3892 24.4296-39.911 24.6438-39.5172C23.8758-37.8712 23.1525-36.2845 22.7198-34.8559C22.1726-33.0495 21.9328-31.0191 22.9266-29.0314C23.2248-28.4349 23.8063-27.7046 24.3386-27.0688C24.9391-26.3517 25.714-25.4825 26.5956-24.5267C28.3622-22.6113 30.6178-20.2821 32.901-17.999C35.1841-15.7158 37.5133-13.4602 39.4286-11.6936C40.3845-10.8119 41.2536-10.0371 41.9708-9.43645C42.6067-8.90415 43.337-8.32269 43.9334-8.02442C45.758-7.11209 47.5002-7.10878 49.3608-7.64721C50.7952-8.06249 52.4442-8.84704 54.3674-9.79612C54.765-9.57714 55.245-9.30453 55.7629-8.99386C57.1951-8.13449 58.7301-7.09223 59.6737-6.14862C60.0001-5.82222 60.3755-5.27287 60.8189-4.45405C61.1129-3.91132 61.3732-3.37587 61.6538-2.79871C61.8054-2.48721 61.9628-2.16313 62.1346-1.81968C62.5739-0.941114 63.1168 0.0850931 63.7815 0.903079C64.4194 1.68829 65.5673 2.77111 67.281 2.77127C68.5244 2.77144 69.3017 1.99947 69.6216 1.61712C69.9838 1.18446 70.2383 0.687907 70.4201 0.274776C70.7937-0.574824 71.1113-1.66674 71.3875-2.81328C71.9491-5.1426 72.4533-8.18481 72.8739-11.1509C73.2968-14.1342 73.6449-17.11 73.8867-19.3354C74.0077-20.4495 74.1025-21.3782 74.1672-22.0293L74.1679-22.0363C75.0221-22.7644 75.8441-23.5089 76.6217-24.2666C84.753-32.1896 91.2163-44.1305 94.8433-54.8461C96.6614-60.2173 97.8102-65.4064 98.0673-69.7503C98.1957-71.9214 98.1065-73.9624 97.7222-75.7458C97.3415-77.5117 96.6309-79.2075 95.3702-80.4682ZM83.3034-57.5743C83.3034-50.7184 77.7455-45.1605 70.8897-45.1605C64.0338-45.1605 58.4759-50.7184 58.4759-57.5743C58.4759-64.4302 64.0338-69.9881 70.8897-69.9881C77.7455-69.9881 83.3034-64.4302 83.3034-57.5743ZM78.3379-57.5743C78.3379-53.4607 75.0033-50.1261 70.8897-50.1261C66.7761-50.1261 63.4414-53.4607 63.4414-57.5743C63.4414-61.6879 66.7761-65.0226 70.8897-65.0226C75.0033-65.0226 78.3379-61.6879 78.3379-57.5743Z"/>
   <path class="monochrome-1 hierarchical-1:secondary SFSymbolsPreview4D4D4D" d="M35.1712-6.78685C34.9497-7.45687 34.4608-8.12456 34.1428-8.54316C33.7439-9.06851 33.2335-9.67695 32.6649-10.3211C31.5234-11.6148 30.0584-13.153 28.5709-14.6397C27.0832-16.1265 25.5444-17.5902 24.251-18.7311C23.607-19.2993 22.9991-19.8093 22.4749-20.208C22.0564-20.5261 21.3929-21.0127 20.7297-21.2353C19.5293-21.6382 18.5505-21.0971 18.2043-20.8777C17.7699-20.6024 17.4125-20.2485 17.1465-19.9537C16.5958-19.3433 16.0284-18.5237 15.4859-17.642C14.3826-15.8491 13.1573-13.4292 12.0962-10.9284C11.0391-8.43689 10.0949-5.7479 9.60976-3.42487C9.36893-2.27154 9.21682-1.0962 9.26712-0.0277897C9.3138 0.964321 9.55535 2.33414 10.5765 3.35538C11.5974 4.37629 12.9667 4.61811 13.9588 4.66496C15.0272 4.7156 16.2023 4.56366 17.3555 4.32316C19.6781 3.83869 22.3666 2.89508 24.8577 1.83842C27.3583 0.777617 29.7782-0.447541 31.5715-1.55104C32.4536-2.09394 33.2734-2.6615 33.8841-3.21267C34.1793-3.47899 34.533-3.83618 34.8082-4.27C35.0279-4.61626 35.5668-5.59 35.1712-6.78685Z"/>
  </g>
  <g id="Regular-S" transform="matrix(1 0 0 1 1401.75 696)">
   <path class="monochrome-0 hierarchical-0:primary SFSymbolsPreview212121" d="M93.2652-80.4682C92.008-81.7253 90.3216-82.4384 88.5615-82.8223C86.7852-83.2098 84.7543-83.3024 82.5939-83.1773C78.2724-82.9271 73.1111-81.7855 67.7591-79.9726C57.0775-76.3543 45.1471-69.8922 37.0775-61.7316C36.3107-60.9562 35.5582-60.1354 34.8235-59.2815L34.8094-59.28C34.1586-59.2149 33.2306-59.1194 32.1175-58.9976C29.8936-58.7543 26.9196-58.4042 23.9384-57.9792C20.9743-57.5566 17.9341-57.0503 15.6063-56.4872C14.4605-56.21 13.3692-55.8917 12.5201-55.5176C12.1073-55.3357 11.6111-55.0808 11.1788-54.7185C10.7969-54.3984 10.0261-53.6214 10.026-52.3791C10.0259-50.6653 11.109-49.5173 11.894-48.8794C12.7121-48.2148 13.7382-47.6718 14.6169-47.2325C14.9592-47.0613 15.2818-46.9044 15.5924-46.7533L15.5954-46.752C16.1727-46.4713 16.7085-46.2107 17.2512-45.9168C18.07-45.4732 18.6195-45.0978 18.9459-44.7714C19.8874-43.8299 20.9104-42.3158 21.7488-40.9064C22.0563-40.3892 22.3246-39.911 22.5388-39.5172C21.7708-37.8712 21.0475-36.2845 20.6148-34.8559C20.0676-33.0495 19.8278-31.0191 20.8216-29.0314C21.1198-28.4349 21.7013-27.7046 22.2336-27.0688C22.8341-26.3517 23.609-25.4825 24.4906-24.5267C26.2572-22.6113 28.5128-20.2821 30.796-17.999C33.0791-15.7158 35.4083-13.4602 37.3236-11.6936C38.2795-10.8119 39.1486-10.0371 39.8658-9.43645C40.5017-8.90415 41.232-8.32269 41.8284-8.02442C43.653-7.11209 45.3952-7.10878 47.2558-7.64721C48.6902-8.06249 50.3392-8.84704 52.2624-9.79612C52.66-9.57714 53.14-9.30453 53.6579-8.99386C55.0901-8.13449 56.6251-7.09223 57.5687-6.14862C57.8951-5.82222 58.2705-5.27287 58.7139-4.45405C59.0079-3.91132 59.2682-3.37587 59.5488-2.79871C59.7004-2.48721 59.8578-2.16313 60.0296-1.81968C60.4689-0.941114 61.0118 0.0850931 61.6765 0.903079C62.3144 1.68829 63.4623 2.77111 65.176 2.77127C66.4194 2.77144 67.1967 1.99947 67.5166 1.61712C67.8788 1.18446 68.1333 0.687907 68.3151 0.274776C68.6887-0.574824 69.0063-1.66674 69.2825-2.81328C69.8441-5.1426 70.3483-8.18481 70.7689-11.1509C71.1918-14.1342 71.5399-17.11 71.7817-19.3354C71.9027-20.4495 71.9975-21.3782 72.0622-22.0293L72.0629-22.0363C72.9171-22.7644 73.7391-23.5089 74.5167-24.2666C82.648-32.1896 89.1113-44.1305 92.7383-54.8461C94.5564-60.2173 95.7052-65.4064 95.9623-69.7503C96.0907-71.9214 96.0015-73.9624 95.6172-75.7458C95.2365-77.5117 94.5259-79.2075 93.2652-80.4682ZM81.1984-57.5743C81.1984-50.7184 75.6405-45.1605 68.7847-45.1605C61.9288-45.1605 56.3709-50.7184 56.3709-57.5743C56.3709-64.4302 61.9288-69.9881 68.7847-69.9881C75.6405-69.9881 81.1984-64.4302 81.1984-57.5743ZM76.2329-57.5743C76.2329-53.4607 72.8983-50.1261 68.7847-50.1261C64.6711-50.1261 61.3364-53.4607 61.3364-57.5743C61.3364-61.6879 64.6711-65.0226 68.7847-65.0226C72.8983-65.0226 76.2329-61.6879 76.2329-57.5743Z"/>
   <path class="monochrome-1 hierarchical-1:secondary SFSymbolsPreview4D4D4D" d="M33.0662-6.78685C32.8447-7.45687 32.3558-8.12456 32.0378-8.54316C31.6389-9.06851 31.1285-9.67695 30.5599-10.3211C29.4184-11.6148 27.9534-13.153 26.4659-14.6397C24.9782-16.1265 23.4394-17.5902 22.146-18.7311C21.502-19.2993 20.8941-19.8093 20.3699-20.208C19.9514-20.5261 19.2879-21.0127 18.6247-21.2353C17.4243-21.6382 16.4455-21.0971 16.0993-20.8777C15.6649-20.6024 15.3075-20.2485 15.0415-19.9537C14.4908-19.3433 13.9234-18.5237 13.3809-17.642C12.2776-15.8491 11.0523-13.4292 9.99118-10.9284C8.93405-8.43689 7.98986-5.7479 7.50476-3.42487C7.26393-2.27154 7.11182-1.0962 7.16212-0.0277897C7.2088 0.964321 7.45035 2.33414 8.47155 3.35538C9.49244 4.37629 10.8617 4.61811 11.8538 4.66496C12.9222 4.7156 14.0973 4.56366 15.2505 4.32316C17.5731 3.83869 20.2616 2.89508 22.7527 1.83842C25.2533 0.777617 27.6732-0.447541 29.4665-1.55104C30.3486-2.09394 31.1684-2.6615 31.7791-3.21267C32.0743-3.47899 32.428-3.83618 32.7032-4.27C32.9229-4.61626 33.4618-5.59 33.0662-6.78685Z"/>
  </g>
  <g id="Ultralight-S" transform="matrix(1 0 0 1 515.351 696)">
   <path class="monochrome-0 hierarchical-0:primary SFSymbolsPreview212121" d="M89.5302-80.4682C88.273-81.7253 86.5866-82.4384 84.8265-82.8223C83.0502-83.2098 81.0193-83.3024 78.8589-83.1773C74.5374-82.9271 69.3761-81.7855 64.0241-79.9726C53.3425-76.3543 41.4121-69.8922 33.3425-61.7316C32.5757-60.9562 31.8232-60.1354 31.0885-59.2815L31.0744-59.28C30.4236-59.2149 29.4956-59.1194 28.3825-58.9976C26.1586-58.7543 23.1846-58.4042 20.2034-57.9792C17.2393-57.5566 14.1991-57.0503 11.8713-56.4872C10.7255-56.21 9.63423-55.8917 8.78515-55.5176C8.37231-55.3357 7.87614-55.0808 7.44381-54.7185C7.0619-54.3984 6.29113-53.6214 6.29103-52.3791C6.29089-50.6653 7.37398-49.5173 8.15901-48.8794C8.97708-48.2148 10.0032-47.6718 10.8819-47.2325C11.2242-47.0613 11.5468-46.9044 11.8574-46.7533L11.8604-46.752C12.4377-46.4713 12.9735-46.2107 13.5162-45.9168C14.335-45.4732 14.8845-45.0978 15.2109-44.7714C16.1524-43.8299 17.1754-42.3158 18.0138-40.9064C18.3213-40.3892 18.5896-39.911 18.8038-39.5172C18.0358-37.8712 17.3125-36.2845 16.8798-34.8559C16.3326-33.0495 16.0928-31.0191 17.0866-29.0314C17.3848-28.4349 17.9663-27.7046 18.4986-27.0688C19.0991-26.3517 19.874-25.4825 20.7556-24.5267C22.5222-22.6113 24.7778-20.2821 27.061-17.999C29.3441-15.7158 31.6733-13.4602 33.5886-11.6936C34.5445-10.8119 35.4136-10.0371 36.1308-9.43645C36.7667-8.90415 37.497-8.32269 38.0934-8.02442C39.918-7.11209 41.6602-7.10878 43.5208-7.64721C44.9552-8.06249 46.6042-8.84704 48.5274-9.79612C48.925-9.57714 49.405-9.30453 49.9229-8.99386C51.3551-8.13449 52.8901-7.09223 53.8337-6.14862C54.1601-5.82222 54.5355-5.27287 54.9789-4.45405C55.2729-3.91132 55.5332-3.37587 55.8138-2.79871C55.9654-2.48721 56.1228-2.16313 56.2946-1.81968C56.7339-0.941114 57.2768 0.0850931 57.9415 0.903079C58.5794 1.68829 59.7273 2.77111 61.441 2.77127C62.6844 2.77144 63.4617 1.99947 63.7816 1.61712C64.1438 1.18446 64.3983 0.687907 64.5801 0.274776C64.9537-0.574824 65.2713-1.66674 65.5475-2.81328C66.1091-5.1426 66.6133-8.18481 67.0339-11.1509C67.4568-14.1342 67.8049-17.11 68.0467-19.3354C68.1677-20.4495 68.2625-21.3782 68.3272-22.0293L68.3279-22.0363C69.1821-22.7644 70.0041-23.5089 70.7817-24.2666C78.913-32.1896 85.3763-44.1305 89.0033-54.8461C90.8214-60.2173 91.9702-65.4064 92.2273-69.7503C92.3557-71.9214 92.2665-73.9624 91.8822-75.7458C91.5015-77.5117 90.7909-79.2075 89.5302-80.4682ZM77.4634-57.5743C77.4634-50.7184 71.9055-45.1605 65.0497-45.1605C58.1938-45.1605 52.6359-50.7184 52.6359-57.5743C52.6359-64.4302 58.1938-69.9881 65.0497-69.9881C71.9055-69.9881 77.4634-64.4302 77.4634-57.5743ZM72.4979-57.5743C72.4979-53.4607 69.1633-50.1261 65.0497-50.1261C60.9361-50.1261 57.6014-53.4607 57.6014-57.5743C57.6014-61.6879 60.9361-65.0226 65.0497-65.0226C69.1633-65.0226 72.4979-61.6879 72.4979-57.5743Z"/>
   <path class="monochrome-1 hierarchical-1:secondary SFSymbolsPreview4D4D4D" d="M29.3312-6.78685C29.1097-7.45687 28.6208-8.12456 28.3028-8.54316C27.9039-9.06851 27.3935-9.67695 26.8249-10.3211C25.6834-11.6148 24.2184-13.153 22.7309-14.6397C21.2432-16.1265 19.7044-17.5902 18.411-18.7311C17.767-19.2993 17.1591-19.8093 16.6349-20.208C16.2164-20.5261 15.5529-21.0127 14.8897-21.2353C13.6893-21.6382 12.7105-21.0971 12.3643-20.8777C11.9299-20.6024 11.5725-20.2485 11.3065-19.9537C10.7558-19.3433 10.1884-18.5237 9.64587-17.642C8.54265-15.8491 7.31732-13.4292 6.25618-10.9284C5.19905-8.43689 4.25486-5.7479 3.76976-3.42487C3.52893-2.27154 3.37682-1.0962 3.42712-0.0277897C3.4738 0.964321 3.71535 2.33414 4.73655 3.35538C5.75744 4.37629 7.12675 4.61811 8.11878 4.66496C9.18719 4.7156 10.3623 4.56366 11.5155 4.32316C13.8381 3.83869 16.5266 2.89508 19.0177 1.83842C21.5183 0.777617 23.9382-0.447541 25.7315-1.55104C26.6136-2.09394 27.4334-2.6615 28.0441-3.21267C28.3393-3.47899 28.693-3.83618 28.9682-4.27C29.1879-4.61626 29.7268-5.59 29.3312-6.78685Z"/>
  </g>
 </g>
</svg>
