<?xml version="1.0" encoding="UTF-8"?>
<!--Generator: Apple Native CoreSVG 175.5-->
<!DOCTYPE svg
PUBLIC "-//W3C//DTD SVG 1.1//EN"
       "http://www.w3.org/Graphics/SVG/1.1/DTD/svg11.dtd">
<svg version="1.1" xmlns="http://www.w3.org/2000/svg" xmlns:xlink="http://www.w3.org/1999/xlink" width="3300" height="2200">
 <!--glyph: "", point size: 100.0, font version: "18.0d12e2", template writer version: "101"-->
 <style>.monochrome-0 {fill:#000000}
.monochrome-1 {fill:#000000}
.monochrome-2 {fill:#FFFFFF;opacity:0.0;-sfsymbols-clear-behind:true}

.hierarchical-0:tertiary {fill:#8E8E8E}
.hierarchical-1:secondary {fill:#4D4D4D}
.hierarchical-2:primary {fill:#212121;opacity:0.0;-sfsymbols-clear-behind:true}

.SFSymbolsPreview4D4D4D {fill:#4D4D4D;opacity:1.0}
.SFSymbolsPreview8E8E8E {fill:#8E8E8E;opacity:1.0}
.SFSymbolsPreviewFFFFFF {fill:#FFFFFF;opacity:1.0}
</style>
 <g id="Notes">
  <rect height="2200" id="artboard" style="fill:white;opacity:1" width="3300" x="0" y="0"/>
  <line style="fill:none;stroke:black;opacity:1;stroke-width:0.5;" x1="263" x2="3036" y1="292" y2="292"/>
  <text style="stroke:none;fill:black;font-family:sans-serif;font-size:13;font-weight:bold;" transform="matrix(1 0 0 1 263 322)">Weight/Scale Variations</text>
  <text style="stroke:none;fill:black;font-family:sans-serif;font-size:13;text-anchor:middle;" transform="matrix(1 0 0 1 559.711 322)">Ultralight</text>
  <text style="stroke:none;fill:black;font-family:sans-serif;font-size:13;text-anchor:middle;" transform="matrix(1 0 0 1 856.422 322)">Thin</text>
  <text style="stroke:none;fill:black;font-family:sans-serif;font-size:13;text-anchor:middle;" transform="matrix(1 0 0 1 1153.13 322)">Light</text>
  <text style="stroke:none;fill:black;font-family:sans-serif;font-size:13;text-anchor:middle;" transform="matrix(1 0 0 1 1449.84 322)">Regular</text>
  <text style="stroke:none;fill:black;font-family:sans-serif;font-size:13;text-anchor:middle;" transform="matrix(1 0 0 1 1746.56 322)">Medium</text>
  <text style="stroke:none;fill:black;font-family:sans-serif;font-size:13;text-anchor:middle;" transform="matrix(1 0 0 1 2043.27 322)">Semibold</text>
  <text style="stroke:none;fill:black;font-family:sans-serif;font-size:13;text-anchor:middle;" transform="matrix(1 0 0 1 2339.98 322)">Bold</text>
  <text style="stroke:none;fill:black;font-family:sans-serif;font-size:13;text-anchor:middle;" transform="matrix(1 0 0 1 2636.69 322)">Heavy</text>
  <text style="stroke:none;fill:black;font-family:sans-serif;font-size:13;text-anchor:middle;" transform="matrix(1 0 0 1 2933.4 322)">Black</text>
  <line style="fill:none;stroke:black;opacity:1;stroke-width:0.5;" x1="263" x2="3036" y1="1903" y2="1903"/>
  <g transform="matrix(1 0 0 1 263 1933)">
   <path d="M9.24805 0.830078C13.5547 0.830078 17.1387-2.74414 17.1387-7.05078C17.1387-11.3574 13.5449-14.9316 9.23828-14.9316C4.94141-14.9316 1.36719-11.3574 1.36719-7.05078C1.36719-2.74414 4.95117 0.830078 9.24805 0.830078ZM9.24805-0.654297C5.70312-0.654297 2.87109-3.49609 2.87109-7.05078C2.87109-10.6055 5.69336-13.4473 9.23828-13.4473C12.793-13.4473 15.6445-10.6055 15.6445-7.05078C15.6445-3.49609 12.8027-0.654297 9.24805-0.654297ZM5.6543-7.05078C5.6543-6.62109 5.95703-6.32812 6.40625-6.32812L8.50586-6.32812L8.50586-4.20898C8.50586-3.76953 8.79883-3.4668 9.22852-3.4668C9.67773-3.4668 9.9707-3.76953 9.9707-4.20898L9.9707-6.32812L12.0898-6.32812C12.5293-6.32812 12.832-6.62109 12.832-7.05078C12.832-7.49023 12.5293-7.79297 12.0898-7.79297L9.9707-7.79297L9.9707-9.90234C9.9707-10.3516 9.67773-10.6543 9.22852-10.6543C8.79883-10.6543 8.50586-10.3516 8.50586-9.90234L8.50586-7.79297L6.40625-7.79297C5.95703-7.79297 5.6543-7.49023 5.6543-7.05078Z"/>
  </g>
  <g transform="matrix(1 0 0 1 281.867 1933)">
   <path d="M11.709 2.91016C17.1582 2.91016 21.6699-1.61133 21.6699-7.05078C21.6699-12.5 17.1484-17.0117 11.6992-17.0117C6.25977-17.0117 1.74805-12.5 1.74805-7.05078C1.74805-1.61133 6.26953 2.91016 11.709 2.91016ZM11.709 1.25C7.09961 1.25 3.41797-2.44141 3.41797-7.05078C3.41797-11.6602 7.08984-15.3516 11.6992-15.3516C16.3086-15.3516 20.0098-11.6602 20.0098-7.05078C20.0098-2.44141 16.3184 1.25 11.709 1.25ZM7.17773-7.05078C7.17773-6.57227 7.50977-6.25 8.00781-6.25L10.8789-6.25L10.8789-3.36914C10.8789-2.88086 11.2109-2.53906 11.6895-2.53906C12.1777-2.53906 12.5195-2.87109 12.5195-3.36914L12.5195-6.25L15.4004-6.25C15.8887-6.25 16.2305-6.57227 16.2305-7.05078C16.2305-7.53906 15.8887-7.88086 15.4004-7.88086L12.5195-7.88086L12.5195-10.752C12.5195-11.25 12.1777-11.5918 11.6895-11.5918C11.2109-11.5918 10.8789-11.25 10.8789-10.752L10.8789-7.88086L8.00781-7.88086C7.50977-7.88086 7.17773-7.53906 7.17773-7.05078Z"/>
  </g>
  <g transform="matrix(1 0 0 1 305.646 1933)">
   <path d="M14.9707 5.66406C21.9336 5.66406 27.6953-0.0976562 27.6953-7.05078C27.6953-14.0137 21.9238-19.7754 14.9609-19.7754C8.00781-19.7754 2.25586-14.0137 2.25586-7.05078C2.25586-0.0976562 8.01758 5.66406 14.9707 5.66406ZM14.9707 3.84766C8.93555 3.84766 4.08203-1.01562 4.08203-7.05078C4.08203-13.0957 8.92578-17.9492 14.9609-17.9492C21.0059-17.9492 25.8691-13.0957 25.8691-7.05078C25.8691-1.01562 21.0156 3.84766 14.9707 3.84766ZM9.19922-7.05078C9.19922-6.5332 9.57031-6.17188 10.1172-6.17188L14.0625-6.17188L14.0625-2.2168C14.0625-1.67969 14.4336-1.29883 14.9512-1.29883C15.4883-1.29883 15.8594-1.66992 15.8594-2.2168L15.8594-6.17188L19.8145-6.17188C20.3516-6.17188 20.7324-6.5332 20.7324-7.05078C20.7324-7.59766 20.3613-7.96875 19.8145-7.96875L15.8594-7.96875L15.8594-11.9141C15.8594-12.4609 15.4883-12.8418 14.9512-12.8418C14.4336-12.8418 14.0625-12.4609 14.0625-11.9141L14.0625-7.96875L10.1172-7.96875C9.57031-7.96875 9.19922-7.59766 9.19922-7.05078Z"/>
  </g>
  <text style="stroke:none;fill:black;font-family:sans-serif;font-size:13;font-weight:bold;" transform="matrix(1 0 0 1 263 1953)">Design Variations</text>
  <text style="stroke:none;fill:black;font-family:sans-serif;font-size:13;" transform="matrix(1 0 0 1 263 1971)">Symbols are supported in up to nine weights and three scales.</text>
  <text style="stroke:none;fill:black;font-family:sans-serif;font-size:13;" transform="matrix(1 0 0 1 263 1989)">For optimal layout with text and other symbols, vertically align</text>
  <text style="stroke:none;fill:black;font-family:sans-serif;font-size:13;" transform="matrix(1 0 0 1 263 2007)">symbols with the adjacent text.</text>
  <line style="fill:none;stroke:#00AEEF;stroke-width:0.5;opacity:1.0;" x1="776" x2="776" y1="1919" y2="1933"/>
  <g transform="matrix(1 0 0 1 776 1933)">
   <path d="M3.31055 0.15625C3.82812 0.15625 4.08203-0.0390625 4.26758-0.585938L5.52734-4.0332L11.2891-4.0332L12.5488-0.585938C12.7344-0.0390625 12.9883 0.15625 13.4961 0.15625C14.0137 0.15625 14.3457-0.15625 14.3457-0.644531C14.3457-0.810547 14.3164-0.966797 14.2383-1.17188L9.6582-13.3691C9.43359-13.9648 9.0332-14.2676 8.4082-14.2676C7.80273-14.2676 7.39258-13.9746 7.17773-13.3789L2.59766-1.16211C2.51953-0.957031 2.49023-0.800781 2.49023-0.634766C2.49023-0.146484 2.80273 0.15625 3.31055 0.15625ZM6.00586-5.51758L8.37891-12.0898L8.42773-12.0898L10.8008-5.51758Z"/>
  </g>
  <line style="fill:none;stroke:#00AEEF;stroke-width:0.5;opacity:1.0;" x1="793.197" x2="793.197" y1="1919" y2="1933"/>
  <text style="stroke:none;fill:black;font-family:sans-serif;font-size:13;font-weight:bold;" transform="matrix(1 0 0 1 776 1953)">Margins</text>
  <text style="stroke:none;fill:black;font-family:sans-serif;font-size:13;" transform="matrix(1 0 0 1 776 1971)">Leading and trailing margins on the left and right side of each symbol</text>
  <text style="stroke:none;fill:black;font-family:sans-serif;font-size:13;" transform="matrix(1 0 0 1 776 1989)">can be adjusted by modifying the x-location of the margin guidelines.</text>
  <text style="stroke:none;fill:black;font-family:sans-serif;font-size:13;" transform="matrix(1 0 0 1 776 2007)">Modifications are automatically applied proportionally to all</text>
  <text style="stroke:none;fill:black;font-family:sans-serif;font-size:13;" transform="matrix(1 0 0 1 776 2025)">scales and weights.</text>
  <g transform="matrix(1 0 0 1 1289 1933)">
   <path d="M2.8418 1.86523L4.54102 3.57422C5.40039 4.44336 6.38672 4.38477 7.31445 3.35938L18.0078-8.42773L17.041-9.4043L6.42578 2.27539C6.07422 2.67578 5.74219 2.77344 5.27344 2.30469L4.10156 1.14258C3.63281 0.683594 3.74023 0.341797 4.14062-0.0195312L15.6152-10.8203L14.6387-11.7871L3.04688-0.898438C2.06055 0.0195312 1.98242 0.996094 2.8418 1.86523ZM9.25781-16.3281C8.83789-15.918 8.80859-15.3418 9.04297-14.9512C9.27734-14.5898 9.73633-14.3555 10.3809-14.5215C11.8457-14.8633 13.3691-14.9219 14.7949-13.9844L14.209-12.5293C13.8672-11.6992 14.043-11.1133 14.5801-10.5664L16.875-8.25195C17.3633-7.76367 17.7734-7.74414 18.3398-7.8418L19.4043-8.03711L20.0684-7.36328L20.0293-6.80664C19.9902-6.30859 20.1172-5.92773 20.6055-5.44922L21.3672-4.70703C21.8457-4.22852 22.4609-4.19922 22.9297-4.66797L25.8398-7.58789C26.3086-8.05664 26.2891-8.65234 25.8105-9.13086L25.0391-9.89258C24.5605-10.3711 24.1895-10.5273 23.7109-10.4883L23.1348-10.4395L22.4902-11.0742L22.7344-12.1973C22.8613-12.7637 22.7051-13.2031 22.1191-13.7891L19.9219-15.9766C16.582-19.2969 12.1484-19.2188 9.25781-16.3281ZM10.752-15.957C13.1836-17.7344 16.4746-17.4316 18.7012-15.2051L21.1328-12.793C21.3672-12.5586 21.4062-12.373 21.3379-12.0312L21.0156-10.5469L22.5195-9.0625L23.5059-9.12109C23.7598-9.13086 23.8379-9.11133 24.0332-8.91602L24.6094-8.33984L22.168-5.89844L21.5918-6.47461C21.3965-6.66992 21.3672-6.74805 21.377-7.01172L21.4453-7.98828L19.9512-9.47266L18.4277-9.21875C18.1055-9.15039 17.959-9.17969 17.7148-9.41406L15.7129-11.416C15.459-11.6504 15.4297-11.8164 15.5859-12.1875L16.4648-14.2773C14.9023-15.7324 12.8711-16.3574 10.8398-15.7617C10.6836-15.7227 10.625-15.8496 10.752-15.957Z"/>
  </g>
  <text style="stroke:none;fill:black;font-family:sans-serif;font-size:13;font-weight:bold;" transform="matrix(1 0 0 1 1289 1953)">Exporting</text>
  <text style="stroke:none;fill:black;font-family:sans-serif;font-size:13;" transform="matrix(1 0 0 1 1289 1971)">Symbols should be outlined when exporting to ensure the</text>
  <text style="stroke:none;fill:black;font-family:sans-serif;font-size:13;" transform="matrix(1 0 0 1 1289 1989)">design is preserved when submitting to Xcode.</text>
  <text id="template-version" style="stroke:none;fill:black;font-family:sans-serif;font-size:13;text-anchor:end;" transform="matrix(1 0 0 1 3036 1933)">Template v.4.0</text>
  <text style="stroke:none;fill:black;font-family:sans-serif;font-size:13;text-anchor:end;" transform="matrix(1 0 0 1 3036 1951)">Requires Xcode 14 or greater</text>
  <text id="descriptive-name" style="stroke:none;fill:black;font-family:sans-serif;font-size:13;text-anchor:end;" transform="matrix(1 0 0 1 3036 1969)">Generated from spaceship</text>
  <text style="stroke:none;fill:black;font-family:sans-serif;font-size:13;text-anchor:end;" transform="matrix(1 0 0 1 3036 1987)">Typeset at 100 points</text>
  <text style="stroke:none;fill:black;font-family:sans-serif;font-size:13;" transform="matrix(1 0 0 1 263 726)">Small</text>
  <text style="stroke:none;fill:black;font-family:sans-serif;font-size:13;" transform="matrix(1 0 0 1 263 1156)">Medium</text>
  <text style="stroke:none;fill:black;font-family:sans-serif;font-size:13;" transform="matrix(1 0 0 1 263 1586)">Large</text>
 </g>
 <g id="Guides">
  <g id="H-reference" style="fill:#27AAE1;stroke:none;" transform="matrix(1 0 0 1 339 696)">
   <path d="M0.993654 0L3.63775 0L29.3281-67.1323L30.0303-67.1323L30.0303-70.459L28.1226-70.459ZM11.6885-24.4799L46.9815-24.4799L46.2315-26.7285L12.4385-26.7285ZM55.1196 0L57.7637 0L30.6382-70.459L29.4326-70.459L29.4326-67.1323Z"/>
  </g>
  <line id="Baseline-S" style="fill:none;stroke:#27AAE1;opacity:1;stroke-width:0.5;" x1="263" x2="3036" y1="696" y2="696"/>
  <line id="Capline-S" style="fill:none;stroke:#27AAE1;opacity:1;stroke-width:0.5;" x1="263" x2="3036" y1="625.541" y2="625.541"/>
  <g id="H-reference" style="fill:#27AAE1;stroke:none;" transform="matrix(1 0 0 1 339 1126)">
   <path d="M0.993654 0L3.63775 0L29.3281-67.1323L30.0303-67.1323L30.0303-70.459L28.1226-70.459ZM11.6885-24.4799L46.9815-24.4799L46.2315-26.7285L12.4385-26.7285ZM55.1196 0L57.7637 0L30.6382-70.459L29.4326-70.459L29.4326-67.1323Z"/>
  </g>
  <line id="Baseline-M" style="fill:none;stroke:#27AAE1;opacity:1;stroke-width:0.5;" x1="263" x2="3036" y1="1126" y2="1126"/>
  <line id="Capline-M" style="fill:none;stroke:#27AAE1;opacity:1;stroke-width:0.5;" x1="263" x2="3036" y1="1055.54" y2="1055.54"/>
  <g id="H-reference" style="fill:#27AAE1;stroke:none;" transform="matrix(1 0 0 1 339 1556)">
   <path d="M0.993654 0L3.63775 0L29.3281-67.1323L30.0303-67.1323L30.0303-70.459L28.1226-70.459ZM11.6885-24.4799L46.9815-24.4799L46.2315-26.7285L12.4385-26.7285ZM55.1196 0L57.7637 0L30.6382-70.459L29.4326-70.459L29.4326-67.1323Z"/>
  </g>
  <line id="Baseline-L" style="fill:none;stroke:#27AAE1;opacity:1;stroke-width:0.5;" x1="263" x2="3036" y1="1556" y2="1556"/>
  <line id="Capline-L" style="fill:none;stroke:#27AAE1;opacity:1;stroke-width:0.5;" x1="263" x2="3036" y1="1485.54" y2="1485.54"/>
  <line id="left-margin-Ultralight-S" style="fill:none;stroke:#00AEEF;stroke-width:0.5;opacity:1.0;" x1="515.351" x2="515.351" y1="600.785" y2="720.121"/>
  <line id="right-margin-Ultralight-S" style="fill:none;stroke:#FF3B30;stroke-width:0.5;opacity:1.0;" x1="604.071" x2="604.071" y1="600.785" y2="720.121"/>
  <line id="left-margin-Regular-S" style="fill:none;stroke:#00AEEF;stroke-width:0.5;opacity:1.0;" x1="1401.75" x2="1401.75" y1="600.785" y2="720.121"/>
  <line id="right-margin-Regular-S" style="fill:none;stroke:#00AEEF;stroke-width:0.5;opacity:1.0;" x1="1497.94" x2="1497.94" y1="600.785" y2="720.121"/>
  <line id="left-margin-Black-S" style="fill:none;stroke:#00AEEF;stroke-width:0.5;opacity:1.0;" x1="2883.2" x2="2883.2" y1="600.785" y2="720.121"/>
  <line id="right-margin-Black-S" style="fill:none;stroke:#00AEEF;stroke-width:0.5;opacity:1.0;" x1="2983.6" x2="2983.6" y1="600.785" y2="720.121"/>
 </g>
 <g id="Symbols">
  <g id="Black-L" transform="matrix(1 0 0 1 2850.87 1556)">
   <path class="monochrome-0 hierarchical-0:tertiary SFSymbolsPreview8E8E8E" d="M52.4734 14.5818C53.0319 15.3175 53.8912 16.491 54.2808 17.6686C54.976 19.7719 54.0288 21.4836 53.6428 22.0922C53.1587 22.8547 52.5374 23.4824 52.0187 23.9505C50.9452 24.9192 49.5043 25.9168 47.9541 26.8709C44.8021 28.8104 40.549 30.9637 36.1539 32.8282C31.7758 34.6853 27.0504 36.3438 22.9682 37.1953C20.9414 37.618 18.8761 37.8851 16.9982 37.796C15.2547 37.7137 12.848 37.2884 11.0537 35.4944C9.2589 33.6995 8.83437 31.2919 8.75231 29.5482C8.66393 27.6701 8.93124 25.6046 9.35455 23.5773C10.2071 19.4944 11.8666 14.7683 13.7246 10.3895C15.5896 5.99415 17.7433 1.74105 19.6823-1.41007C20.6359-2.96004 21.6329-4.40033 22.601-5.4732C23.0685-5.99131 23.6966-6.61327 24.4601-7.09705C25.0686-7.4828 26.7889-8.43378 28.8985-7.72571C30.0643-7.33444 31.2305-6.47916 31.966-5.92004C32.8873-5.21924 33.9555-4.32295 35.0878-3.32425C37.3609-1.31902 40.0655 1.25349 42.6799 3.86673C45.2946 6.47967 47.8691 9.18309 49.8758 11.4565C50.8748 12.5891 51.772 13.6584 52.4734 14.5818ZM27.8732 1.98105C27.6394 2.32927 27.3861 2.72316 27.1151 3.1636C25.4549 5.86149 23.4941 9.70818 21.7586 13.7984C20.016 17.9054 18.5888 22.0512 17.8976 25.3614C17.5567 26.9937 17.4355 28.2356 17.4675 29.081C18.3125 29.1133 19.5541 28.9923 21.186 28.6519C24.4952 27.9616 28.6397 26.5355 32.7459 24.7939C36.8352 23.0592 40.6816 21.0987 43.3801 19.4382C43.8246 19.1648 44.2217 18.9091 44.5723 18.6734C44.208 18.2362 43.7932 17.7539 43.3321 17.2314C41.4814 15.1342 39.0403 12.5678 36.5109 10.0395C33.9811 7.51153 31.4128 5.07138 29.3143 3.22033C28.7925 2.76011 28.3103 2.34556 27.8732 1.98105ZM16.7588 28.9925C16.7589 28.9925 16.7632 28.9937 16.7712 28.9969C16.7627 28.9943 16.7586 28.9928 16.7588 28.9925ZM17.5515 29.7774C17.5546 29.7856 17.5559 29.7896 17.5558 29.7899C17.5557 29.7899 17.5541 29.7861 17.5515 29.7774Z"/>
   <path class="monochrome-1 hierarchical-1:secondary SFSymbolsPreview4D4D4D" d="M147.807-113.06C150.901-112.385 153.865-111.132 156.074-108.922C158.29-106.706 159.539-103.726 160.208-100.622C160.884-97.4877 161.04-93.9006 160.815-90.0847C160.363-82.4501 158.344-73.3298 155.148-63.8895C148.774-45.056 137.414-24.069 123.122-10.1437C121.756-8.81196 120.311-7.50345 118.81-6.22375C118.809-6.21967 118.809-6.2156 118.808-6.21153C118.695-5.06709 118.528-3.4348 118.315-1.47669C117.89 2.43458 117.279 7.66484 116.535 12.9082C115.796 18.1213 114.91 23.4682 113.923 27.5621C113.437 29.5773 112.879 31.4964 112.223 32.9896C111.903 33.7157 111.456 34.5885 110.819 35.3489C110.257 36.0209 108.891 37.3777 106.705 37.3774C103.693 37.3771 101.676 35.474 100.555 34.0939C99.3865 32.6563 98.4323 30.8526 97.6603 29.3085C97.3583 28.7048 97.0819 28.1358 96.8155 27.5883C96.3224 26.5739 95.8648 25.6325 95.3478 24.6784C94.5685 23.2392 93.9087 22.2737 93.335 21.7C91.6766 20.0416 88.9787 18.2097 86.4614 16.6993C85.5512 16.1533 84.7075 15.6741 84.0088 15.2893C80.6287 16.9573 77.7304 18.3363 75.2094 19.0661C71.9392 20.0125 68.8771 20.0067 65.6702 18.4032C64.622 17.8789 63.3385 16.857 62.2208 15.9214C60.9603 14.8657 59.4328 13.504 57.7528 11.9543C54.3864 8.84942 50.2927 4.88491 46.2799 0.872109C42.2671-3.14069 38.3026-7.23436 35.1977-10.6008C33.6483-12.2808 32.2863-13.8083 31.2308-15.0688C30.2952-16.1862 29.2733-17.4697 28.7492-18.5181C27.0025-22.0117 27.4242-25.5803 28.3858-28.7552C29.1463-31.2661 30.4174-34.0547 31.7673-36.9478C31.3908-37.6399 30.9193-38.4803 30.3787-39.3894C28.9052-41.8665 27.1073-44.5277 25.4525-46.1824C24.8789-46.7561 23.9131-47.4159 22.474-48.1955C21.52-48.7122 20.5785-49.1701 19.564-49.6632C19.0164-49.9296 18.4475-50.206 17.8439-50.508C16.2995-51.28 14.4961-52.2345 13.0583-53.4025C11.6785-54.5237 9.77491-56.5414 9.77517-59.5535C9.77535-61.7371 11.13-63.1026 11.8013-63.6652C12.5611-64.302 13.4332-64.75 14.1588-65.0697C15.6511-65.7272 17.5691-66.2866 19.583-66.7739C23.6743-67.7635 29.0177-68.6534 34.2272-69.3961C39.4668-70.1432 44.6939-70.7584 48.6025-71.1861C50.5589-71.4002 52.19-71.568 53.3339-71.6824C53.342-71.6832 53.3502-71.6841 53.3586-71.685C54.6499-73.1858 55.9724-74.6284 57.3202-75.9913C71.5032-90.3342 92.4716-101.692 111.245-108.051C120.652-111.238 129.723-113.244 137.319-113.684C141.116-113.904 144.685-113.741 147.807-113.06ZM114.045-99.7853C96.1519-93.724 76.4934-82.9688 63.5259-69.8549C61.9712-68.2828 60.4268-66.5624 58.9065-64.7285C51.4572-55.744 44.8384-44.35 40.5909-35.2175C40.4062-34.8204 40.2264-34.4352 40.0521-34.0611C38.5036-30.741 37.3694-28.3081 36.7384-26.2255C36.0681-24.0123 36.245-23.0412 36.5551-22.421C36.5539-22.4233 36.5577-22.4178 36.5676-22.4035C36.6366-22.3029 37.0019-21.7708 37.9224-20.6715C38.8515-19.5616 40.1091-18.1481 41.6128-16.5179C44.6147-13.2629 48.4928-9.25735 52.451-5.29895C56.4094-1.34084 60.4152 2.53727 63.6699 5.53916C65.3004 7.04316 66.7139 8.30076 67.8238 9.22993C68.9237 10.1509 69.456 10.516 69.5561 10.585C69.5701 10.5946 69.5756 10.5984 69.5733 10.5972C70.421 11.0211 71.1512 11.1552 72.7829 10.6827C74.768 10.1082 77.3583 8.84447 81.7641 6.66265L81.7644 6.66236L82.1417 6.4756L82.1417 6.4756C90.8739 2.15211 103.782-5.14825 111.867-11.7941C113.711-13.3097 115.445-14.8477 117.032-16.3942C130.047-29.0761 140.799-48.7171 146.881-66.6877C149.915-75.6492 151.711-83.9753 152.102-90.6002C152.299-93.9141 152.134-96.6601 151.677-98.7833C151.212-100.937 150.515-102.139 149.903-102.751C149.284-103.37 148.084-104.067 145.947-104.533C143.839-104.993 141.114-105.162 137.823-104.971C131.245-104.59 122.972-102.809 114.045-99.7853ZM114.502-45.4118C126.552-45.4118 136.321-55.1803 136.321-67.23C136.321-79.2797 126.552-89.0482 114.502-89.0482C102.453-89.0482 92.6843-79.2797 92.6843-67.23C92.6843-55.1803 102.453-45.4118 114.502-45.4118ZM93.1535 10.5882C95.3254 11.9976 97.6934 13.716 99.5061 15.529C100.99 17.0126 102.13 18.8753 103.022 20.5219C103.626 21.6372 104.236 22.8893 104.779 24.0064C105.024 24.5079 105.254 24.9821 105.466 25.4048C106.342 21.7399 107.172 16.777 107.894 11.6832C108.425 7.93887 108.889 4.18789 109.264 0.9332C104.045 4.43371 98.3154 7.78935 93.1535 10.5882ZM45.9963-62.1091C42.7916-61.7365 39.1221-61.2783 35.459-60.7561C30.3658-60.03 25.4039-59.196 21.741-58.3168C21.743-58.3157 21.7449-58.3148 21.7469-58.3139C22.1696-58.1024 22.6441-57.8715 23.1459-57.6271C24.263-57.0831 25.5152-56.4736 26.6307-55.8691C28.2772-54.9775 30.1401-53.8371 31.6236-52.3535C33.3694-50.6077 35.0095-48.3663 36.3675-46.2828C39.1166-51.4412 42.3835-56.9056 45.9963-62.1091ZM18.2446-60.4731C18.2456-60.4731 18.2546-60.4629 18.2687-60.4428C18.2507-60.4629 18.2437-60.4731 18.2446-60.4731ZM107.625 28.9076C107.625 28.9088 107.615 28.9018 107.595 28.8837C107.615 28.8977 107.625 28.9067 107.625 28.9076Z"/>
   <path class="monochrome-2 hierarchical-2:primary SFSymbolsPreviewFFFFFF" d="M114.502-54.1391C121.732-54.1391 127.593-60 127.593-67.23C127.593-74.46 121.732-80.3209 114.502-80.3209C107.272-80.3209 101.412-74.46 101.412-67.23C101.412-60 107.272-54.1391 114.502-54.1391Z"/>
  </g>
  <g id="Regular-L" transform="matrix(1 0 0 1 1372.01 1556)">
   <path class="monochrome-0 hierarchical-0:tertiary SFSymbolsPreview8E8E8E" d="M47.779 14.5818C48.3376 15.3175 49.1969 16.491 49.5865 17.6686C50.2817 19.7719 49.3345 21.4836 48.9485 22.0922C48.4644 22.8547 47.843 23.4824 47.3243 23.9505C46.2509 24.9192 44.81 25.9168 43.2598 26.8709C40.1078 28.8104 35.8547 30.9637 31.4596 32.8282C27.0814 34.6853 22.3561 36.3438 18.2739 37.1953C16.2471 37.618 14.1817 37.8851 12.3039 37.796C10.5604 37.7137 8.15373 37.2884 6.35943 35.4944C4.56458 33.6995 4.14006 31.2919 4.05799 29.5482C3.96961 27.6701 4.23693 25.6046 4.66023 23.5773C5.5128 19.4944 7.17232 14.7683 9.03027 10.3895C10.8953 5.99415 13.0489 1.74105 14.9879-1.41007C15.9415-2.96004 16.9386-4.40033 17.9067-5.4732C18.3742-5.99131 19.0023-6.61327 19.7658-7.09705C20.3743-7.4828 22.0946-8.43378 24.2042-7.72571C25.37-7.33444 26.5362-6.47916 27.2717-5.92004C28.193-5.21924 29.2612-4.32295 30.3934-3.32425C32.6666-1.31902 35.3712 1.25349 37.9856 3.86673C40.6003 6.47967 43.1748 9.18309 45.1815 11.4565C46.1805 12.5891 47.0777 13.6584 47.779 14.5818ZM23.1789 1.98105C22.9451 2.32927 22.6918 2.72316 22.4208 3.1636C20.7606 5.86149 18.7997 9.70818 17.0642 13.7984C15.3216 17.9054 13.8944 22.0512 13.2032 25.3614C12.8624 26.9937 12.7412 28.2356 12.7732 29.081C13.6182 29.1133 14.8598 28.9923 16.4917 28.6519C19.8009 27.9616 23.9454 26.5355 28.0516 24.7939C32.1409 23.0592 35.9873 21.0987 38.6858 19.4382C39.1303 19.1648 39.5274 18.9091 39.8779 18.6734C39.5137 18.2362 39.0989 17.7539 38.6378 17.2314C36.787 15.1342 34.346 12.5678 31.8166 10.0395C29.2868 7.51153 26.7185 5.07138 24.62 3.22033C24.0982 2.76011 23.616 2.34556 23.1789 1.98105ZM12.0645 28.9925C12.0646 28.9925 12.0689 28.9937 12.0769 28.9969C12.0683 28.9943 12.0643 28.9928 12.0645 28.9925ZM12.8571 29.7774C12.8603 29.7856 12.8616 29.7896 12.8615 29.7899C12.8614 29.7899 12.8598 29.7861 12.8571 29.7774Z"/>
   <path class="monochrome-1 hierarchical-1:secondary SFSymbolsPreview4D4D4D" d="M143.113-113.06C146.206-112.385 149.17-111.132 151.38-108.922C153.596-106.706 154.845-103.726 155.514-100.622C156.189-97.4877 156.346-93.9006 156.12-90.0847C155.668-82.4501 153.649-73.3298 150.454-63.8895C144.079-45.056 132.72-24.069 118.428-10.1437C117.061-8.81196 115.617-7.50345 114.115-6.22375C114.115-6.21967 114.114-6.2156 114.114-6.21153C114-5.06709 113.834-3.4348 113.621-1.47669C113.196 2.43458 112.584 7.66484 111.841 12.9082C111.102 18.1213 110.216 23.4682 109.229 27.5621C108.743 29.5773 108.185 31.4964 107.528 32.9896C107.209 33.7157 106.761 34.5885 106.125 35.3489C105.563 36.0209 104.196 37.3777 102.011 37.3774C98.9991 37.3771 96.9817 35.474 95.8605 34.0939C94.6922 32.6563 93.738 30.8526 92.9659 29.3085C92.664 28.7048 92.3876 28.1358 92.1211 27.5883C91.6281 26.5739 91.1705 25.6325 90.6535 24.6784C89.8742 23.2392 89.2144 22.2737 88.6407 21.7C86.9822 20.0416 84.2843 18.2097 81.7671 16.6993C80.8569 16.1533 80.0132 15.6741 79.3145 15.2893C75.9344 16.9573 73.0361 18.3363 70.515 19.0661C67.2449 20.0125 64.1828 20.0067 60.9758 18.4032C59.9277 17.8789 58.6442 16.857 57.5265 15.9214C56.266 14.8657 54.7385 13.504 53.0585 11.9543C49.6921 8.84942 45.5984 4.88491 41.5856 0.872109C37.5728-3.14069 33.6083-7.23436 30.5034-10.6008C28.954-12.2808 27.592-13.8083 26.5365-15.0688C25.6009-16.1862 24.579-17.4697 24.0548-18.5181C22.3082-22.0117 22.7298-25.5803 23.6915-28.7552C24.452-31.2661 25.7231-34.0547 27.073-36.9478C26.6965-37.6399 26.2249-38.4803 25.6844-39.3894C24.2109-41.8665 22.413-44.5277 20.7582-46.1824C20.1846-46.7561 19.2188-47.4159 17.7797-48.1955C16.8256-48.7122 15.8842-49.1701 14.8697-49.6632C14.3221-49.9296 13.7532-50.206 13.1496-50.508C11.6052-51.28 9.80179-52.2345 8.36397-53.4025C6.98422-54.5237 5.08059-56.5414 5.08086-59.5535C5.08103-61.7371 6.43571-63.1026 7.10695-63.6652C7.8668-64.302 8.73886-64.75 9.46445-65.0697C10.9568-65.7272 12.8748-66.2866 14.8887-66.7739C18.9799-67.7635 24.3234-68.6534 29.5329-69.3961C34.7725-70.1432 39.9995-70.7584 43.9082-71.1861C45.8646-71.4002 47.4957-71.568 48.6395-71.6824C48.6477-71.6832 48.6558-71.6841 48.6643-71.685C49.9556-73.1858 51.2781-74.6284 52.6259-75.9913C66.8089-90.3342 87.7773-101.692 106.551-108.051C115.958-111.238 125.029-113.244 132.624-113.684C136.421-113.904 139.991-113.741 143.113-113.06ZM109.351-99.7853C91.4576-93.724 71.7991-82.9688 58.8315-69.8549C57.2769-68.2828 55.7325-66.5624 54.2122-64.7285C46.7629-55.744 40.1441-44.35 35.8966-35.2175C35.7118-34.8204 35.5321-34.4352 35.3578-34.0611C33.8093-30.741 32.675-28.3081 32.0441-26.2255C31.3738-24.0123 31.5507-23.0412 31.8608-22.421C31.8596-22.4233 31.8634-22.4178 31.8733-22.4035C31.9422-22.3029 32.3076-21.7708 33.2281-20.6715C34.1572-19.5616 35.4148-18.1481 36.9185-16.5179C39.9204-13.2629 43.7985-9.25735 47.7566-5.29895C51.715-1.34084 55.7209 2.53727 58.9755 5.53916C60.6061 7.04316 62.0196 8.30076 63.1294 9.22993C64.2294 10.1509 64.7617 10.516 64.8618 10.585C64.8758 10.5946 64.8813 10.5984 64.879 10.5972C65.7267 11.0211 66.4569 11.1552 68.0886 10.6827C70.0737 10.1082 72.664 8.84447 77.0698 6.66265L77.0701 6.66236L77.4474 6.4756L77.4474 6.4756C86.1796 2.15211 99.0875-5.14825 107.173-11.7941C109.017-13.3097 110.75-14.8477 112.338-16.3942C125.353-29.0761 136.105-48.7171 142.187-66.6877C145.22-75.6492 147.016-83.9753 147.408-90.6002C147.604-93.9141 147.44-96.6601 146.982-98.7833C146.518-100.937 145.821-102.139 145.209-102.751C144.59-103.37 143.389-104.067 141.253-104.533C139.145-104.993 136.42-105.162 133.129-104.971C126.55-104.59 118.278-102.809 109.351-99.7853ZM109.808-45.4118C121.858-45.4118 131.626-55.1803 131.626-67.23C131.626-79.2797 121.858-89.0482 109.808-89.0482C97.7584-89.0482 87.9899-79.2797 87.9899-67.23C87.9899-55.1803 97.7584-45.4118 109.808-45.4118ZM88.4592 10.5882C90.6311 11.9976 92.9991 13.716 94.8118 15.529C96.2954 17.0126 97.4358 18.8753 98.3274 20.5219C98.9316 21.6372 99.5414 22.8893 100.085 24.0064C100.329 24.5079 100.56 24.9821 100.772 25.4048C101.648 21.7399 102.478 16.777 103.2 11.6832C103.731 7.93887 104.195 4.18789 104.57 0.9332C99.3508 4.43371 93.6211 7.78935 88.4592 10.5882ZM41.3019-62.1091C38.0973-61.7365 34.4278-61.2783 30.7646-60.7561C25.6715-60.03 20.7096-59.196 17.0467-58.3168C17.0487-58.3157 17.0506-58.3148 17.0526-58.3139C17.4752-58.1024 17.9498-57.8715 18.4516-57.6271C19.5687-57.0831 20.8209-56.4736 21.9364-55.8691C23.5829-54.9775 25.4457-53.8371 26.9293-52.3535C28.675-50.6077 30.3152-48.3663 31.6731-46.2828C34.4222-51.4412 37.6891-56.9056 41.3019-62.1091ZM13.5503-60.4731C13.5513-60.4731 13.5603-60.4629 13.5744-60.4428C13.5564-60.4629 13.5493-60.4731 13.5503-60.4731ZM102.931 28.9076C102.931 28.9088 102.921 28.9018 102.901 28.8837C102.921 28.8977 102.931 28.9067 102.931 28.9076Z"/>
   <path class="monochrome-2 hierarchical-2:primary SFSymbolsPreviewFFFFFF" d="M109.808-54.1391C117.038-54.1391 122.899-60 122.899-67.23C122.899-74.46 117.038-80.3209 109.808-80.3209C102.578-80.3209 96.7172-74.46 96.7172-67.23C96.7172-60 102.578-54.1391 109.808-54.1391Z"/>
  </g>
  <g id="Ultralight-L" transform="matrix(1 0 0 1 486.585 1556)">
   <path class="monochrome-0 hierarchical-0:tertiary SFSymbolsPreview8E8E8E" d="M43.0697 14.5818C43.6282 15.3175 44.4876 16.491 44.8771 17.6686C45.5724 19.7719 44.6252 21.4836 44.2391 22.0922C43.7551 22.8547 43.1337 23.4824 42.615 23.9505C41.5415 24.9192 40.1007 25.9168 38.5504 26.8709C35.3984 28.8104 31.1453 30.9637 26.7503 32.8282C22.3721 34.6853 17.6468 36.3438 13.5646 37.1953C11.5378 37.618 9.47239 37.8851 7.59458 37.796C5.85101 37.7137 3.44438 37.2884 1.65008 35.4944C-0.144769 33.6995-0.569293 31.2919-0.651358 29.5482C-0.739736 27.6701-0.47242 25.6046-0.0491181 23.5773C0.803449 19.4944 2.46297 14.7683 4.32092 10.3895C6.18597 5.99415 8.33959 1.74105 10.2786-1.41007C11.2322-2.96004 12.2293-4.40033 13.1973-5.4732C13.6649-5.99131 14.2929-6.61327 15.0565-7.09705C15.6649-7.4828 17.3852-8.43378 19.4948-7.72571C20.6606-7.33444 21.8269-6.47916 22.5623-5.92004C23.4837-5.21924 24.5519-4.32295 25.6841-3.32425C27.9573-1.31902 30.6618 1.25349 33.2762 3.86673C35.8909 6.47967 38.4655 9.18309 40.4722 11.4565C41.4711 12.5891 42.3683 13.6584 43.0697 14.5818ZM18.4696 1.98105C18.2358 2.32927 17.9824 2.72316 17.7114 3.1636C16.0512 5.86149 14.0904 9.70818 12.3549 13.7984C10.6123 17.9054 9.18509 22.0512 8.49389 25.3614C8.15303 26.9937 8.03184 28.2356 8.06384 29.081C8.90885 29.1133 10.1505 28.9923 11.7823 28.6519C15.0915 27.9616 19.2361 26.5355 23.3423 24.7939C27.4316 23.0592 31.278 21.0987 33.9765 19.4382C34.421 19.1648 34.8181 18.9091 35.1686 18.6734C34.8044 18.2362 34.3895 17.7539 33.9285 17.2314C32.0777 15.1342 29.6367 12.5678 27.1072 10.0395C24.5775 7.51153 22.0091 5.07138 19.9107 3.22033C19.3888 2.76011 18.9066 2.34556 18.4696 1.98105ZM7.35513 28.9925C7.35527 28.9925 7.35955 28.9937 7.36752 28.9969C7.359 28.9943 7.35498 28.9928 7.35513 28.9925ZM8.1478 29.7774C8.15091 29.7856 8.15225 29.7896 8.15213 29.7899C8.15202 29.7899 8.15045 29.7861 8.1478 29.7774Z"/>
   <path class="monochrome-1 hierarchical-1:secondary SFSymbolsPreview4D4D4D" d="M138.404-113.06C141.497-112.385 144.461-111.132 146.671-108.922C148.886-106.706 150.135-103.726 150.804-100.622C151.48-97.4877 151.637-93.9006 151.411-90.0847C150.959-82.4501 148.94-73.3298 145.745-63.8895C139.37-45.056 128.01-24.069 113.719-10.1437C112.352-8.81196 110.907-7.50345 109.406-6.22375C109.405-6.21967 109.405-6.2156 109.405-6.21153C109.291-5.06709 109.124-3.4348 108.912-1.47669C108.487 2.43458 107.875 7.66484 107.132 12.9082C106.392 18.1213 105.506 23.4682 104.519 27.5621C104.034 29.5773 103.476 31.4964 102.819 32.9896C102.5 33.7157 102.052 34.5885 101.416 35.3489C100.853 36.0209 99.4871 37.3777 97.3018 37.3774C94.2898 37.3771 92.2723 35.474 91.1511 34.0939C89.9829 32.6563 89.0287 30.8526 88.2566 29.3085C87.9546 28.7048 87.6783 28.1358 87.4118 27.5883C86.9187 26.5739 86.4611 25.6325 85.9442 24.6784C85.1648 23.2392 84.505 22.2737 83.9314 21.7C82.2729 20.0416 79.575 18.2097 77.0578 16.6993C76.1475 16.1533 75.3039 15.6741 74.6051 15.2893C71.225 16.9573 68.3267 18.3363 65.8057 19.0661C62.5356 20.0125 59.4735 20.0067 56.2665 18.4032C55.2183 17.8789 53.9349 16.857 52.8172 15.9214C51.5567 14.8657 50.0291 13.504 48.3491 11.9543C44.9827 8.84942 40.889 4.88491 36.8762 0.872109C32.8634-3.14069 28.8989-7.23436 25.7941-10.6008C24.2447-12.2808 22.8826-13.8083 21.8272-15.0688C20.8916-16.1862 19.8696-17.4697 19.3455-18.5181C17.5988-22.0117 18.0205-25.5803 18.9822-28.7552C19.7426-31.2661 21.0138-34.0547 22.3637-36.9478C21.9871-37.6399 21.5156-38.4803 20.975-39.3894C19.5016-41.8665 17.7036-44.5277 16.0489-46.1824C15.4752-46.7561 14.5095-47.4159 13.0703-48.1955C12.1163-48.7122 11.1748-49.1701 10.1603-49.6632C9.61273-49.9296 9.04386-50.206 8.44028-50.508C6.89584-51.28 5.09244-52.2345 3.65462-53.4025C2.27487-54.5237 0.371246-56.5414 0.371507-59.5535C0.371682-61.7371 1.72636-63.1026 2.3976-63.6652C3.15746-64.302 4.02951-64.75 4.7551-65.0697C6.24743-65.7272 8.16549-66.2866 10.1793-66.7739C14.2706-67.7635 19.6141-68.6534 24.8236-69.3961C30.0631-70.1432 35.2902-70.7584 39.1989-71.1861C41.1552-71.4002 42.7863-71.568 43.9302-71.6824C43.9383-71.6832 43.9465-71.6841 43.9549-71.685C45.2463-73.1858 46.5687-74.6284 47.9165-75.9913C62.0995-90.3342 83.0679-101.692 101.842-108.051C111.248-111.238 120.32-113.244 127.915-113.684C131.712-113.904 135.281-113.741 138.404-113.06ZM104.642-99.7853C86.7482-93.724 67.0898-82.9688 54.1222-69.8549C52.5676-68.2828 51.0231-66.5624 49.5029-64.7285C42.0535-55.744 35.4348-44.35 31.1872-35.2175C31.0025-34.8204 30.8227-34.4352 30.6485-34.0611C29.0999-30.741 27.9657-28.3081 27.3347-26.2255C26.6645-24.0123 26.8413-23.0412 27.1514-22.421C27.1503-22.4233 27.1541-22.4178 27.1639-22.4035C27.2329-22.3029 27.5983-21.7708 28.5187-20.6715C29.4479-19.5616 30.7055-18.1481 32.2092-16.5179C35.2111-13.2629 39.0892-9.25735 43.0473-5.29895C47.0057-1.34084 51.0115 2.53727 54.2662 5.53916C55.8967 7.04316 57.3103 8.30076 58.4201 9.22993C59.52 10.1509 60.0524 10.516 60.1525 10.585C60.1664 10.5946 60.1719 10.5984 60.1696 10.5972C61.0173 11.0211 61.7475 11.1552 63.3792 10.6827C65.3644 10.1082 67.9546 8.84447 72.3605 6.66265L72.3607 6.66236L72.7381 6.4756L72.7381 6.4756C81.4703 2.15211 94.3782-5.14825 102.464-11.7941C104.308-13.3097 106.041-14.8477 107.628-16.3942C120.644-29.0761 131.396-48.7171 137.478-66.6877C140.511-75.6492 142.307-83.9753 142.699-90.6002C142.895-93.9141 142.731-96.6601 142.273-98.7833C141.809-100.937 141.112-102.139 140.5-102.751C139.881-103.37 138.68-104.067 136.543-104.533C134.435-104.993 131.71-105.162 128.42-104.971C121.841-104.59 113.569-102.809 104.642-99.7853ZM105.099-45.4118C117.149-45.4118 126.917-55.1803 126.917-67.23C126.917-79.2797 117.149-89.0482 105.099-89.0482C93.049-89.0482 83.2806-79.2797 83.2806-67.23C83.2806-55.1803 93.049-45.4118 105.099-45.4118ZM83.7498 10.5882C85.9218 11.9976 88.2898 13.716 90.1024 15.529C91.5861 17.0126 92.7264 18.8753 93.6181 20.5219C94.2223 21.6372 94.832 22.8893 95.3757 24.0064C95.6201 24.5079 95.8508 24.9821 96.0623 25.4048C96.9382 21.7399 97.7685 16.777 98.4908 11.6832C99.0217 7.93887 99.4854 4.18789 99.8604 0.9332C94.6415 4.43371 88.9117 7.78935 83.7498 10.5882ZM36.5926-62.1091C33.3879-61.7365 29.7184-61.2783 26.0553-60.7561C20.9621-60.03 16.0002-59.196 12.3374-58.3168C12.3393-58.3157 12.3413-58.3148 12.3432-58.3139C12.7659-58.1024 13.2405-57.8715 13.7422-57.6271C14.8594-57.0831 16.1115-56.4736 17.2271-55.8691C18.8736-54.9775 20.7364-53.8371 22.2199-52.3535C23.9657-50.6077 25.6058-48.3663 26.9638-46.2828C29.7129-51.4412 32.9798-56.9056 36.5926-62.1091ZM8.84095-60.4731C8.84194-60.4731 8.85093-60.4629 8.86501-60.4428C8.84703-60.4629 8.83999-60.4731 8.84095-60.4731ZM98.2217 28.9076C98.2217 28.9088 98.2118 28.9018 98.1917 28.8837C98.2115 28.8977 98.2217 28.9067 98.2217 28.9076Z"/>
   <path class="monochrome-2 hierarchical-2:primary SFSymbolsPreviewFFFFFF" d="M105.099-54.1391C112.329-54.1391 118.19-60 118.19-67.23C118.19-74.46 112.329-80.3209 105.099-80.3209C97.8688-80.3209 92.0079-74.46 92.0079-67.23C92.0079-60 97.8688-54.1391 105.099-54.1391Z"/>
  </g>
  <g id="Black-M" transform="matrix(1 0 0 1 2866.93 1126)">
   <path class="monochrome-0 hierarchical-0:tertiary SFSymbolsPreview8E8E8E" d="M42.3683 4.61943C42.8151 5.20799 43.5026 6.14681 43.8142 7.08889C44.3704 8.77151 43.6127 10.1409 43.3038 10.6277C42.9166 11.2377 42.4195 11.7399 42.0045 12.1144C41.1457 12.8894 39.993 13.6874 38.7528 14.4508C36.2312 16.0023 32.8288 17.725 29.3127 19.2165C25.8102 20.7023 22.0299 22.0291 18.7642 22.7102C17.1427 23.0484 15.4904 23.262 13.9882 23.1908C12.5933 23.125 10.668 22.7847 9.23258 21.3495C7.79669 19.9136 7.45708 17.9875 7.39142 16.5925C7.32072 15.0901 7.53457 13.4377 7.87322 11.8158C8.55527 8.54949 9.88289 4.7686 11.3692 1.26559C12.8613-2.25068 14.5842-5.65316 16.1354-8.17406C16.8983-9.41403 17.6959-10.5663 18.4704-11.4246C18.8444-11.839 19.3468-12.3366 19.9577-12.7236C20.4444-13.0322 21.8207-13.793 23.5084-13.2266C24.441-12.9135 25.374-12.2293 25.9624-11.782C26.6994-11.2214 27.554-10.5044 28.4598-9.7054C30.2783-8.10121 32.442-6.04321 34.5335-3.95262C36.6253-1.86226 38.6849 0.300473 40.2902 2.11924C41.0894 3.02524 41.8072 3.88075 42.3683 4.61943ZM22.6882-5.46116C22.5011-5.18258 22.2984-4.86747 22.0816-4.51512C20.7535-2.35681 19.1848 0.720545 17.7964 3.99269C16.4023 7.27833 15.2606 10.5949 14.7076 13.2431C14.4349 14.549 14.338 15.5425 14.3636 16.2188C15.0396 16.2446 16.0329 16.1478 17.3384 15.8755C19.9857 15.3233 23.3014 14.1824 26.5863 12.7891C29.8578 11.4013 32.9349 9.83298 35.0937 8.50457C35.4493 8.28581 35.767 8.08124 36.0474 7.89273C35.756 7.54295 35.4241 7.15708 35.0553 6.73911C33.5747 5.06137 31.6218 3.00825 29.5983 0.985622C27.5745-1.03678 25.5198-2.98889 23.8411-4.46974C23.4236-4.83791 23.0378-5.16955 22.6882-5.46116ZM13.7966 16.148C13.7967 16.148 13.8002 16.149 13.8065 16.1515C13.7997 16.1494 13.7965 16.1483 13.7966 16.148ZM14.4307 16.7759C14.4332 16.7825 14.4343 16.7857 14.4342 16.7859C14.4341 16.7859 14.4329 16.7829 14.4307 16.7759Z"/>
   <path class="monochrome-1 hierarchical-1:secondary SFSymbolsPreview4D4D4D" d="M118.635-97.4939C121.11-96.954 123.481-95.9514 125.249-94.1839C127.022-92.4111 128.021-90.0268 128.556-87.5438C129.096-85.0362 129.222-82.1665 129.041-79.1138C128.68-73.0061 127.064-65.7098 124.508-58.1576C119.408-43.0908 110.321-26.3012 98.8875-15.161C97.7941-14.0956 96.6384-13.0488 95.4373-12.025C95.4368-12.0217 95.4366-12.0185 95.4364-12.0152C95.3454-11.0997 95.212-9.79384 95.0419-8.22735C94.7019-5.09833 94.2125-0.914131 93.6178 3.28055C93.0265 7.45102 92.3176 11.7285 91.5279 15.0037C91.1395 16.6158 90.6929 18.1511 90.1677 19.3457C89.9121 19.9266 89.5542 20.6248 89.045 21.2331C88.5951 21.7707 87.5022 22.8562 85.754 22.8559C83.3443 22.8557 81.7304 21.3332 80.8334 20.2291C79.8988 19.079 79.1354 17.6361 78.5178 16.4008C78.2762 15.9179 78.0551 15.4627 77.8419 15.0247C77.4475 14.2131 77.0814 13.46 76.6678 12.6967C76.0444 11.5454 75.5165 10.773 75.0576 10.314C73.7308 8.98725 71.5725 7.52177 69.5587 6.31345C68.8305 5.87662 68.1556 5.49332 67.5966 5.18542C64.8925 6.51988 62.5739 7.623 60.5571 8.20692C57.941 8.96398 55.4913 8.95932 52.9257 7.67653C52.0872 7.25716 51.0604 6.43959 50.1663 5.69113C49.1578 4.84657 47.9358 3.75717 46.5918 2.51743C43.8987 0.0335345 40.6237-3.13807 37.4135-6.34831C34.2033-9.55855 31.0317-12.8335 28.5478-15.5266C27.3082-16.8706 26.2186-18.0927 25.3742-19.1011C24.6258-19.995 23.8082-21.0218 23.3889-21.8605C21.9916-24.6553 22.3289-27.5102 23.0983-30.0502C23.7066-32.0589 24.7235-34.2898 25.8034-36.6043C25.5022-37.1579 25.125-37.8303 24.6925-38.5575C23.5138-40.5392 22.0754-42.6682 20.7516-43.9919C20.2927-44.4509 19.5201-44.9787 18.3688-45.6024C17.6055-46.0157 16.8524-46.3821 16.0408-46.7765C15.6027-46.9897 15.1476-47.2108 14.6647-47.4524C13.4292-48.07 11.9865-48.8336 10.8362-49.768C9.7324-50.6649 8.20951-52.2791 8.20972-54.6888C8.20986-56.4356 9.2936-57.5281 9.83059-57.9782C10.4385-58.4876 11.1361-58.846 11.7166-59.1018C12.9105-59.6277 14.4449-60.0753 16.056-60.4651C19.329-61.2568 23.6038-61.9687 27.7714-62.5629C31.963-63.1605 36.1447-63.6527 39.2716-63.9949C40.8367-64.1661 42.1416-64.3004 43.0567-64.3919C43.0632-64.3926 43.0697-64.3933 43.0765-64.394C44.1095-65.5946 45.1675-66.7487 46.2457-67.839C57.5921-79.3133 74.3669-88.3994 89.3859-93.4869C96.9112-96.036 104.168-97.6411 110.245-97.993C113.282-98.1688 116.138-98.0387 118.635-97.4939ZM91.6259-86.8742C77.3111-82.0252 61.5843-73.421 51.2103-62.9299C49.9666-61.6722 48.731-60.2959 47.5148-58.8288C41.5553-51.6412 36.2603-42.526 32.8623-35.22C32.7145-34.9023 32.5707-34.5942 32.4313-34.2949C31.1925-31.6388 30.2851-29.6925 29.7803-28.0264C29.2441-26.2558 29.3856-25.479 29.6337-24.9828C29.6327-24.9846 29.6358-24.9802 29.6437-24.9688C29.6988-24.8883 29.9911-24.4626 30.7275-23.5832C31.4708-22.6953 32.4769-21.5645 33.6799-20.2603C36.0814-17.6563 39.1839-14.4519 42.3503-11.2852C45.5171-8.11867 48.7217-5.01618 51.3255-2.61467C52.6299-1.41147 53.7607-0.405389 54.6486 0.337942C55.5285 1.07476 55.9544 1.36683 56.0345 1.42199C56.0456 1.42967 56.0501 1.43269 56.0482 1.43176C56.7264 1.77084 57.3105 1.87813 58.6159 1.50018C60.204 1.04055 62.2762 0.0295782 65.8009-1.71588L65.8011-1.71611L66.103-1.86552L66.103-1.86552C73.0887-5.32431 83.4151-11.1646 89.8835-16.4813C91.3587-17.6938 92.7453-18.9242 94.0151-20.1614C104.427-30.3069 113.029-46.0197 117.895-60.3962C120.321-67.5654 121.758-74.2262 122.072-79.5261C122.228-82.1773 122.097-84.3741 121.731-86.0726C121.359-87.7958 120.802-88.7573 120.312-89.247C119.817-89.7418 118.856-90.2996 117.147-90.6725C115.461-91.0403 113.281-91.1752 110.648-91.0228C105.385-90.7181 98.7674-89.2933 91.6259-86.8742ZM91.9915-43.3755C101.631-43.3755 109.446-51.1902 109.446-60.83C109.446-70.4698 101.631-78.2845 91.9915-78.2845C82.3517-78.2845 74.537-70.4698 74.537-60.83C74.537-51.1902 82.3517-43.3755 91.9915-43.3755ZM74.9124 1.42455C76.6499 2.55211 78.5443 3.92683 79.9944 5.37719C81.1814 6.56409 82.0936 8.05425 82.807 9.37148C83.2903 10.2638 83.7781 11.2654 84.2131 12.1591C84.4086 12.5603 84.5931 12.9397 84.7623 13.2778C85.4631 10.3459 86.1273 6.37559 86.7051 2.30053C87.1299-0.694902 87.5008-3.69569 87.8008-6.29944C83.6257-3.49903 79.0419-0.814524 74.9124 1.42455ZM37.1866-56.7333C34.6229-56.4352 31.6872-56.0686 28.7567-55.6509C24.6822-55.07 20.7127-54.4028 17.7824-53.6995C17.784-53.6985 17.7855-53.6978 17.7871-53.6971C18.1252-53.5279 18.5049-53.3432 18.9063-53.1477C19.8-52.7125 20.8017-52.2249 21.6942-51.7413C23.0114-51.028 24.5016-50.1157 25.6885-48.9288C27.0851-47.5322 28.3972-45.739 29.4835-44.0722C31.6828-48.199 34.2963-52.5705 37.1866-56.7333ZM14.9853-55.4244C14.9861-55.4244 14.9933-55.4163 15.0045-55.4002C14.9901-55.4163 14.9845-55.4244 14.9853-55.4244ZM86.4899 16.0801C86.4899 16.081 86.4819 16.0754 86.4659 16.061C86.4817 16.0722 86.4899 16.0794 86.4899 16.0801Z"/>
   <path class="monochrome-2 hierarchical-2:primary SFSymbolsPreviewFFFFFF" d="M91.9915-50.3573C97.7755-50.3573 102.464-55.046 102.464-60.83C102.464-66.614 97.7755-71.3027 91.9915-71.3027C86.2076-71.3027 81.5188-66.614 81.5188-60.83C81.5188-55.046 86.2076-50.3573 91.9915-50.3573Z"/>
  </g>
  <g id="Regular-M" transform="matrix(1 0 0 1 1386.73 1126)">
   <path class="monochrome-0 hierarchical-0:tertiary SFSymbolsPreview8E8E8E" d="M39.0157 4.61943C39.4625 5.20799 40.15 6.14681 40.4616 7.08889C41.0179 8.77151 40.2601 10.1409 39.9513 10.6277C39.564 11.2377 39.0669 11.7399 38.6519 12.1144C37.7932 12.8894 36.6405 13.6874 35.4003 14.4508C32.8787 16.0023 29.4762 17.725 25.9602 19.2165C22.4576 20.7023 18.6774 22.0291 15.4116 22.7102C13.7902 23.0484 12.1379 23.262 10.6356 23.1908C9.24076 23.125 7.31545 22.7847 5.88001 21.3495C4.44413 19.9136 4.10451 17.9875 4.03886 16.5925C3.96816 15.0901 4.18201 13.4377 4.52065 11.8158C5.20271 8.54949 6.53032 4.7686 8.01668 1.26559C9.50872-2.25068 11.2316-5.65316 12.7828-8.17406C13.5457-9.41403 14.3434-10.5663 15.1178-11.4246C15.4918-11.839 15.9943-12.3366 16.6051-12.7236C17.0919-13.0322 18.4681-13.793 20.1558-13.2266C21.0885-12.9135 22.0214-12.2293 22.6098-11.782C23.3469-11.2214 24.2014-10.5044 25.1072-9.7054C26.9258-8.10121 29.0894-6.04321 31.1809-3.95262C33.2727-1.86226 35.3323 0.300473 36.9377 2.11924C37.7369 3.02524 38.4546 3.88075 39.0157 4.61943ZM19.3356-5.46116C19.1486-5.18258 18.9459-4.86747 18.7291-4.51512C17.4009-2.35681 15.8323 0.720545 14.4439 3.99269C13.0498 7.27833 11.908 10.5949 11.3551 13.2431C11.0824 14.549 10.9854 15.5425 11.011 16.2188C11.687 16.2446 12.6803 16.1478 13.9858 15.8755C16.6332 15.3233 19.9488 14.1824 23.2338 12.7891C26.5052 11.4013 29.5823 9.83298 31.7411 8.50457C32.0967 8.28581 32.4144 8.08124 32.6948 7.89273C32.4035 7.54295 32.0716 7.15708 31.7027 6.73911C30.2221 5.06137 28.2693 3.00825 26.2457 0.985622C24.2219-1.03678 22.1672-2.98889 20.4885-4.46974C20.071-4.83791 19.6853-5.16955 19.3356-5.46116ZM10.4441 16.148C10.4442 16.148 10.4476 16.149 10.454 16.1515C10.4471 16.1494 10.4439 16.1483 10.4441 16.148ZM11.0782 16.7759C11.0807 16.7825 11.0817 16.7857 11.0817 16.7859C11.0816 16.7859 11.0803 16.7829 11.0782 16.7759Z"/>
   <path class="monochrome-1 hierarchical-1:secondary SFSymbolsPreview4D4D4D" d="M115.283-97.4939C117.758-96.954 120.129-95.9514 121.896-94.1839C123.669-92.4111 124.668-90.0268 125.203-87.5438C125.744-85.0362 125.869-82.1665 125.689-79.1138C125.327-73.0061 123.712-65.7098 121.156-58.1576C116.056-43.0908 106.968-26.3012 95.5349-15.161C94.4416-14.0956 93.2858-13.0488 92.0847-12.025C92.0843-12.0217 92.084-12.0185 92.0838-12.0152C91.9928-11.0997 91.8595-9.79384 91.6893-8.22735C91.3493-5.09833 90.8599-0.914131 90.2653 3.28055C89.6739 7.45102 88.965 11.7285 88.1754 15.0037C87.787 16.6158 87.3404 18.1511 86.8151 19.3457C86.5596 19.9266 86.2016 20.6248 85.6924 21.2331C85.2426 21.7707 84.1497 22.8562 82.4014 22.8559C79.9918 22.8557 78.3778 21.3332 77.4809 20.2291C76.5462 19.079 75.7829 17.6361 75.1652 16.4008C74.9237 15.9179 74.7026 15.4627 74.4894 15.0247C74.0949 14.2131 73.7288 13.46 73.3153 12.6967C72.6918 11.5454 72.164 10.773 71.705 10.314C70.3783 8.98725 68.2199 7.52177 66.2062 6.31345C65.478 5.87662 64.803 5.49332 64.244 5.18542C61.54 6.51988 59.2213 7.623 57.2045 8.20692C54.5884 8.96398 52.1387 8.95932 49.5731 7.67653C48.7346 7.25716 47.7078 6.43959 46.8137 5.69113C45.8053 4.84657 44.5832 3.75717 43.2392 2.51743C40.5461 0.0335345 37.2712-3.13807 34.0609-6.34831C30.8507-9.55855 27.6791-12.8335 25.1952-15.5266C23.9557-16.8706 22.8661-18.0927 22.0217-19.1011C21.2732-19.995 20.4557-21.0218 20.0363-21.8605C18.639-24.6553 18.9763-27.5102 19.7457-30.0502C20.3541-32.0589 21.371-34.2898 22.4509-36.6043C22.1497-37.1579 21.7724-37.8303 21.34-38.5575C20.1612-40.5392 18.7229-42.6682 17.399-43.9919C16.9401-44.4509 16.1675-44.9787 15.0162-45.6024C14.253-46.0157 13.4998-46.3821 12.6882-46.7765C12.2501-46.9897 11.795-47.2108 11.3122-47.4524C10.0766-48.07 8.6339-48.8336 7.48364-49.768C6.37984-50.6649 4.85694-52.2791 4.85715-54.6888C4.85729-56.4356 5.94103-57.5281 6.47803-57.9782C7.08591-58.4876 7.78356-58.846 8.36403-59.1018C9.5579-59.6277 11.0923-60.0753 12.7034-60.4651C15.9764-61.2568 20.2512-61.9687 24.4188-62.5629C28.6105-63.1605 32.7921-63.6527 35.919-63.9949C37.4841-64.1661 38.789-64.3004 39.7041-64.3919C39.7106-64.3926 39.7171-64.3933 39.7239-64.394C40.757-65.5946 41.8149-66.7487 42.8932-67.839C54.2396-79.3133 71.0143-88.3994 86.0334-93.4869C93.5586-96.036 100.816-97.6411 106.892-97.993C109.93-98.1688 112.785-98.0387 115.283-97.4939ZM88.2734-86.8742C73.9585-82.0252 58.2318-73.421 47.8577-62.9299C46.614-61.6722 45.3785-60.2959 44.1622-58.8288C38.2028-51.6412 32.9078-42.526 29.5097-35.22C29.3619-34.9023 29.2181-34.5942 29.0787-34.2949C27.8399-31.6388 26.9325-29.6925 26.4277-28.0264C25.8915-26.2558 26.033-25.479 26.2811-24.9828C26.2802-24.9846 26.2832-24.9802 26.2911-24.9688C26.3463-24.8883 26.6386-24.4626 27.3749-23.5832C28.1182-22.6953 29.1243-21.5645 30.3273-20.2603C32.7288-17.6563 35.8313-14.4519 38.9978-11.2852C42.1645-8.11867 45.3692-5.01618 47.9729-2.61467C49.2773-1.41147 50.4082-0.405389 51.296 0.337942C52.176 1.07476 52.6019 1.36683 52.6819 1.42199C52.6931 1.42967 52.6975 1.43269 52.6956 1.43176C53.3738 1.77084 53.958 1.87813 55.2633 1.50018C56.8515 1.04055 58.9237 0.0295782 62.4483-1.71588L62.4485-1.71611L62.7504-1.86552L62.7504-1.86552C69.7362-5.32431 80.0625-11.1646 86.5309-16.4813C88.0062-17.6938 89.3928-18.9242 90.6625-20.1614C101.075-30.3069 109.676-46.0197 114.542-60.3962C116.969-67.5654 118.405-74.2262 118.719-79.5261C118.876-82.1773 118.745-84.3741 118.378-86.0726C118.007-87.7958 117.449-88.7573 116.96-89.247C116.465-89.7418 115.504-90.2996 113.795-90.6725C112.108-91.0403 109.928-91.1752 107.296-91.0228C102.033-90.7181 95.4148-89.2933 88.2734-86.8742ZM88.639-43.3755C98.2788-43.3755 106.094-51.1902 106.094-60.83C106.094-70.4698 98.2788-78.2845 88.639-78.2845C78.9992-78.2845 71.1844-70.4698 71.1844-60.83C71.1844-51.1902 78.9992-43.3755 88.639-43.3755ZM71.5598 1.42455C73.2974 2.55211 75.1918 3.92683 76.6419 5.37719C77.8288 6.56409 78.7411 8.05425 79.4544 9.37148C79.9378 10.2638 80.4256 11.2654 80.8605 12.1591C81.056 12.5603 81.2406 12.9397 81.4098 13.2778C82.1105 10.3459 82.7747 6.37559 83.3526 2.30053C83.7773-0.694902 84.1483-3.69569 84.4483-6.29944C80.2731-3.49903 75.6893-0.814524 71.5598 1.42455ZM33.834-56.7333C31.2703-56.4352 28.3347-56.0686 25.4042-55.6509C21.3296-55.07 17.3601-54.4028 14.4298-53.6995C14.4314-53.6985 14.433-53.6978 14.4345-53.6971C14.7727-53.5279 15.1523-53.3432 15.5537-53.1477C16.4474-52.7125 17.4492-52.2249 18.3416-51.7413C19.6588-51.028 21.1491-50.1157 22.3359-48.9288C23.7325-47.5322 25.0446-45.739 26.131-44.0722C28.3303-48.199 30.9438-52.5705 33.834-56.7333ZM11.6327-55.4244C11.6335-55.4244 11.6407-55.4163 11.652-55.4002C11.6376-55.4163 11.6319-55.4244 11.6327-55.4244ZM83.1373 16.0801C83.1373 16.081 83.1294 16.0754 83.1133 16.061C83.1292 16.0722 83.1373 16.0794 83.1373 16.0801Z"/>
   <path class="monochrome-2 hierarchical-2:primary SFSymbolsPreviewFFFFFF" d="M88.639-50.3573C94.4229-50.3573 99.1117-55.046 99.1117-60.83C99.1117-66.614 94.4229-71.3027 88.639-71.3027C82.855-71.3027 78.1662-66.614 78.1662-60.83C78.1662-55.046 82.855-50.3573 88.639-50.3573Z"/>
  </g>
  <g id="Ultralight-M" transform="matrix(1 0 0 1 500.814 1126)">
   <path class="monochrome-0 hierarchical-0:tertiary SFSymbolsPreview8E8E8E" d="M34.7935 4.61943C35.2404 5.20799 35.9278 6.14681 36.2395 7.08889C36.7957 8.77151 36.0379 10.1409 35.7291 10.6277C35.3418 11.2377 34.8447 11.7399 34.4298 12.1144C33.571 12.8894 32.4183 13.6874 31.1781 14.4508C28.6565 16.0023 25.254 17.725 21.738 19.2165C18.2354 20.7023 14.4552 22.0291 11.1894 22.7102C9.56798 23.0484 7.91569 23.262 6.41344 23.1908C5.01858 23.125 3.09328 22.7847 1.65784 21.3495C0.221959 19.9136-0.11766 17.9875-0.183312 16.5925C-0.254015 15.0901-0.0401618 13.4377 0.29848 11.8158C0.980533 8.54949 2.30815 4.7686 3.79451 1.26559C5.28655-2.25068 7.00945-5.65316 8.56065-8.17406C9.32353-9.41403 10.1212-10.5663 10.8956-11.4246C11.2697-11.839 11.7721-12.3366 12.3829-12.7236C12.8697-13.0322 14.2459-13.793 15.9336-13.2266C16.8663-12.9135 17.7993-12.2293 18.3876-11.782C19.1247-11.2214 19.9793-10.5044 20.885-9.7054C22.7036-8.10121 24.8672-6.04321 26.9588-3.95262C29.0505-1.86226 31.1102 0.300473 32.7155 2.11924C33.5147 3.02524 34.2324 3.88075 34.7935 4.61943ZM15.1134-5.46116C14.9264-5.18258 14.7237-4.86747 14.5069-4.51512C13.1787-2.35681 11.6101 0.720545 10.2217 3.99269C8.82761 7.27833 7.68585 10.5949 7.13289 13.2431C6.8602 14.549 6.76325 15.5425 6.78885 16.2188C7.46485 16.2446 8.45815 16.1478 9.76364 15.8755C12.411 15.3233 15.7266 14.1824 19.0116 12.7891C22.283 11.4013 25.3602 9.83298 27.5189 8.50457C27.8745 8.28581 28.1922 8.08124 28.4727 7.89273C28.1813 7.54295 27.8494 7.15708 27.4805 6.73911C25.9999 5.06137 24.0471 3.00825 22.0235 0.985622C19.9998-1.03678 17.9451-2.98889 16.2663-4.46974C15.8489-4.83791 15.4631-5.16955 15.1134-5.46116ZM6.22188 16.148C6.22199 16.148 6.22541 16.149 6.23179 16.1515C6.22497 16.1494 6.22176 16.1483 6.22188 16.148ZM6.85601 16.7759C6.8585 16.7825 6.85957 16.7857 6.85948 16.7859C6.85939 16.7859 6.85813 16.7829 6.85601 16.7759Z"/>
   <path class="monochrome-1 hierarchical-1:secondary SFSymbolsPreview4D4D4D" d="M111.061-97.4939C113.535-96.954 115.907-95.9514 117.674-94.1839C119.447-92.4111 120.446-90.0268 120.981-87.5438C121.522-85.0362 121.647-82.1665 121.467-79.1138C121.105-73.0061 119.49-65.7098 116.933-58.1576C111.834-43.0908 102.746-26.3012 91.3127-15.161C90.2194-14.0956 89.0637-13.0488 87.8626-12.025C87.8621-12.0217 87.8619-12.0185 87.8616-12.0152C87.7706-11.0997 87.6373-9.79384 87.4672-8.22735C87.1271-5.09833 86.6377-0.914131 86.0431 3.28055C85.4517 7.45102 84.7428 11.7285 83.9532 15.0037C83.5648 16.6158 83.1182 18.1511 82.5929 19.3457C82.3374 19.9266 81.9794 20.6248 81.4702 21.2331C81.0204 21.7707 79.9275 22.8562 78.1792 22.8559C75.7696 22.8557 74.1556 21.3332 73.2587 20.2291C72.3241 19.079 71.5607 17.6361 70.9431 16.4008C70.7015 15.9179 70.4804 15.4627 70.2672 15.0247C69.8727 14.2131 69.5067 13.46 69.0931 12.6967C68.4696 11.5454 67.9418 10.773 67.4829 10.314C66.1561 8.98725 63.9978 7.52177 61.984 6.31345C61.2558 5.87662 60.5809 5.49332 60.0219 5.18542C57.3178 6.51988 54.9991 7.623 52.9823 8.20692C50.3662 8.96398 47.9166 8.95932 45.351 7.67653C44.5124 7.25716 43.4857 6.43959 42.5915 5.69113C41.5831 4.84657 40.3611 3.75717 39.0171 2.51743C36.3239 0.0335345 33.049-3.13807 29.8388-6.34831C26.6285-9.55855 23.4569-12.8335 20.973-15.5266C19.7335-16.8706 18.6439-18.0927 17.7995-19.1011C17.051-19.995 16.2335-21.0218 15.8142-21.8605C14.4168-24.6553 14.7542-27.5102 15.5235-30.0502C16.1319-32.0589 17.1488-34.2898 18.2287-36.6043C17.9275-37.1579 17.5502-37.8303 17.1178-38.5575C15.939-40.5392 14.5007-42.6682 13.1769-43.9919C12.7179-44.4509 11.9454-44.9787 10.794-45.6024C10.0308-46.0157 9.27763-46.3821 8.46602-46.7765C8.02796-46.9897 7.57286-47.2108 7.09-47.4524C5.85445-48.07 4.41172-48.8336 3.26147-49.768C2.15767-50.6649 0.634771-52.2791 0.63498-54.6888C0.63512-56.4356 1.71886-57.5281 2.25586-57.9782C2.86374-58.4876 3.56139-58.846 4.14185-59.1018C5.33572-59.6277 6.87016-60.0753 8.48122-60.4651C11.7542-61.2568 16.029-61.9687 20.1966-62.5629C24.3883-63.1605 28.5699-63.6527 31.6969-63.9949C33.2619-64.1661 34.5668-64.3004 35.4819-64.3919C35.4884-64.3926 35.495-64.3933 35.5017-64.394C36.5348-65.5946 37.5928-66.7487 38.671-67.839C50.0174-79.3133 66.7921-88.3994 81.8112-93.4869C89.3364-96.036 96.5936-97.6411 102.67-97.993C105.707-98.1688 108.563-98.0387 111.061-97.4939ZM84.0512-86.8742C69.7364-82.0252 54.0096-73.421 43.6355-62.9299C42.3918-61.6722 41.1563-60.2959 39.9401-58.8288C33.9806-51.6412 28.6856-42.526 25.2875-35.22C25.1398-34.9023 24.9959-34.5942 24.8565-34.2949C23.6177-31.6388 22.7103-29.6925 22.2055-28.0264C21.6693-26.2558 21.8108-25.479 22.0589-24.9828C22.058-24.9846 22.061-24.9802 22.0689-24.9688C22.1241-24.8883 22.4164-24.4626 23.1527-23.5832C23.8961-22.6953 24.9022-21.5645 26.1051-20.2603C28.5066-17.6563 31.6091-14.4519 34.7756-11.2852C37.9423-8.11867 41.147-5.01618 43.7507-2.61467C45.0552-1.41147 46.186-0.405389 47.0738 0.337942C47.9538 1.07476 48.3797 1.36683 48.4597 1.42199C48.4709 1.42967 48.4753 1.43269 48.4735 1.43176C49.1516 1.77084 49.7358 1.87813 51.0411 1.50018C52.6293 1.04055 54.7015 0.0295782 58.2261-1.71588L58.2264-1.71611L58.5282-1.86552L58.5282-1.86552C65.514-5.32431 75.8403-11.1646 82.3088-16.4813C83.784-17.6938 85.1706-18.9242 86.4404-20.1614C96.8526-30.3069 105.454-46.0197 110.32-60.3962C112.747-67.5654 114.183-74.2262 114.497-79.5261C114.654-82.1773 114.522-84.3741 114.156-86.0726C113.785-87.7958 113.227-88.7573 112.737-89.247C112.242-89.7418 111.282-90.2996 109.573-90.6725C107.886-91.0403 105.706-91.1752 103.074-91.0228C97.8105-90.7181 91.1927-89.2933 84.0512-86.8742ZM84.4168-43.3755C94.0566-43.3755 101.871-51.1902 101.871-60.83C101.871-70.4698 94.0566-78.2845 84.4168-78.2845C74.777-78.2845 66.9623-70.4698 66.9623-60.83C66.9623-51.1902 74.777-43.3755 84.4168-43.3755ZM67.3376 1.42455C69.0752 2.55211 70.9696 3.92683 72.4197 5.37719C73.6066 6.56409 74.5189 8.05425 75.2322 9.37148C75.7156 10.2638 76.2034 11.2654 76.6384 12.1591C76.8338 12.5603 77.0184 12.9397 77.1876 13.2778C77.8883 10.3459 78.5525 6.37559 79.1304 2.30053C79.5551-0.694902 79.9261-3.69569 80.2261-6.29944C76.051-3.49903 71.4672-0.814524 67.3376 1.42455ZM29.6119-56.7333C27.0481-56.4352 24.1125-56.0686 21.182-55.6509C17.1075-55.07 13.138-54.4028 10.2077-53.6995C10.2092-53.6985 10.2108-53.6978 10.2124-53.6971C10.5505-53.5279 10.9301-53.3432 11.3316-53.1477C12.2253-52.7125 13.227-52.2249 14.1194-51.7413C15.4366-51.028 16.9269-50.1157 18.1137-48.9288C19.5103-47.5322 20.8224-45.739 21.9088-44.0722C24.1081-48.199 26.7216-52.5705 29.6119-56.7333ZM7.41053-55.4244C7.41132-55.4244 7.41851-55.4163 7.42978-55.4002C7.4154-55.4163 7.40976-55.4244 7.41053-55.4244ZM78.9151 16.0801C78.9151 16.081 78.9072 16.0754 78.8912 16.061C78.907 16.0722 78.9151 16.0794 78.9151 16.0801Z"/>
   <path class="monochrome-2 hierarchical-2:primary SFSymbolsPreviewFFFFFF" d="M84.4168-50.3573C90.2008-50.3573 94.8895-55.046 94.8895-60.83C94.8895-66.614 90.2008-71.3027 84.4168-71.3027C78.6328-71.3027 73.9441-66.614 73.9441-60.83C73.9441-55.046 78.6328-50.3573 84.4168-50.3573Z"/>
  </g>
  <g id="Black-S" transform="matrix(1 0 0 1 2883.2 696)">
   <path class="monochrome-0 hierarchical-0:tertiary SFSymbolsPreview8E8E8E" d="M32.1825-5.34243C32.5177-4.90101 33.0333-4.19689 33.267-3.49033C33.6842-2.22837 33.1158-1.20134 32.8842-0.836191C32.5938-0.378707 32.2209-0.00203818 31.9097 0.278805C31.2657 0.860042 30.4011 1.45856 29.471 2.03107C27.5798 3.19476 25.0279 4.48675 22.3909 5.60541C19.764 6.71971 16.9288 7.71479 14.4795 8.22569C13.2634 8.4793 12.0242 8.63953 10.8975 8.58612C9.85134 8.53673 8.40736 8.28154 7.33078 7.20512C6.25387 6.12817 5.99916 4.68363 5.94992 3.63741C5.89689 2.51054 6.05728 1.27127 6.31126 0.0548636C6.8228-2.39488 7.81851-5.23055 8.93328-7.85781C10.0523-10.495 11.3445-13.0469 12.5079-14.9375C13.08-15.8675 13.6783-16.7317 14.2591-17.3754C14.5396-17.6863 14.9165-18.0595 15.3746-18.3497C15.7397-18.5812 16.7719-19.1518 18.0376-18.7269C18.7371-18.4922 19.4369-17.979 19.8781-17.6435C20.4309-17.223 21.0719-16.6853 21.7512-16.0861C23.1151-14.8829 24.7378-13.3394 26.3065-11.7715C27.8753-10.2037 29.42-8.58165 30.624-7.21757C31.2234-6.53807 31.7617-5.89644 32.1825-5.34243ZM17.4225-12.9029C17.2822-12.6939 17.1302-12.4576 16.9676-12.1933C15.9715-10.5746 14.795-8.26659 13.7537-5.81248C12.7081-3.34825 11.8518-0.860802 11.4371 1.12535C11.2326 2.10473 11.1598 2.84986 11.179 3.35709C11.686 3.37646 12.431 3.30385 13.4101 3.09963C15.3957 2.68544 17.8824 1.82982 20.3461 0.784813C22.7997-0.256002 25.1075-1.43226 26.7266-2.42857C26.9933-2.59264 27.2316-2.74607 27.4419-2.88745C27.2234-3.14979 26.9745-3.43919 26.6978-3.75267C25.5873-5.01097 24.1227-6.55081 22.6051-8.06778C21.0872-9.58458 19.5462-11.0487 18.2871-12.1593C17.974-12.4354 17.6847-12.6842 17.4225-12.9029ZM10.7538 3.30403C10.7539 3.30403 10.7565 3.30473 10.7612 3.30665C10.7561 3.30507 10.7537 3.3042 10.7538 3.30403ZM11.2294 3.77495C11.2313 3.77984 11.2321 3.78228 11.232 3.78246C11.2319 3.78246 11.231 3.78019 11.2294 3.77495Z"/>
   <path class="monochrome-1 hierarchical-1:secondary SFSymbolsPreview4D4D4D" d="M89.3828-81.9274C91.239-81.5225 93.0174-80.7705 94.3431-79.4449C95.6726-78.1154 96.4219-76.3271 96.8234-74.4649C97.2287-72.5841 97.3227-70.4318 97.1873-68.1423C96.9162-63.5615 95.7047-58.0894 93.7875-52.4252C89.9627-41.1251 83.1469-28.5329 74.572-20.1777C73.7519-19.3787 72.8851-18.5936 71.9843-17.8257C71.984-17.8233 71.9838-17.8209 71.9836-17.8184C71.9154-17.1318 71.8154-16.1524 71.6878-14.9775C71.4328-12.6308 71.0657-9.4926 70.6197-6.34659C70.1762-3.21874 69.6445-0.0105909 69.0523 2.44579C68.761 3.65486 68.426 4.80634 68.0321 5.70228C67.8404 6.13795 67.572 6.66158 67.1901 7.11785C66.8527 7.52105 66.033 8.33513 64.7218 8.33495C62.9146 8.33478 61.7041 7.1929 61.0314 6.36486C60.3304 5.50225 59.7579 4.42007 59.2947 3.49358C59.1135 3.1314 58.9477 2.78999 58.7878 2.4615C58.492 1.85286 58.2174 1.28803 57.9072 0.715518C57.4396-0.147958 57.0438-0.727275 56.6995-1.07148C55.7045-2.06656 54.0857-3.16567 52.5754-4.07191C52.0292-4.39954 51.5231-4.68701 51.1038-4.91794C49.0758-3.91709 47.3368-3.08975 45.8241-2.65181C43.8621-2.08402 42.0248-2.08751 40.1006-3.0496C39.4717-3.36413 38.7016-3.97731 38.031-4.53865C37.2747-5.17207 36.3582-5.98912 35.3502-6.91893C33.3304-8.78185 30.8742-11.1606 28.4665-13.5682C26.0588-15.9759 23.6801-18.4321 21.8172-20.452C20.8875-21.46 20.0703-22.3765 19.437-23.1328C18.8757-23.8032 18.2625-24.5733 17.948-25.2024C16.9-27.2985 17.153-29.4397 17.73-31.3446C18.1863-32.8511 18.949-34.5243 19.7589-36.2602C19.533-36.6754 19.2501-37.1797 18.9257-37.7252C18.0417-39.2114 16.9629-40.8081 15.97-41.801C15.6259-42.1452 15.0464-42.541 14.1829-43.0088C13.6105-43.3188 13.0456-43.5935 12.4369-43.8894C12.1084-44.0493 11.767-44.2151 11.4049-44.3963C10.4782-44.8595 9.39619-45.4322 8.5335-46.133C7.70565-46.8057 6.56348-48.0164 6.56364-49.8236C6.56374-51.1337 7.37655-51.953 7.77929-52.2906C8.23521-52.6727 8.75844-52.9415 9.19379-53.1333C10.0892-53.5278 11.24-53.8634 12.4483-54.1558C14.9031-54.7496 18.1092-55.2836 21.2349-55.7292C24.3786-56.1774 27.5149-56.5466 29.86-56.8031C31.0339-56.9316 32.0125-57.0323 32.6989-57.1009C32.7037-57.1014 32.7086-57.102 32.7137-57.1025C33.4885-58.003 34.282-58.8685 35.0906-59.6863C43.6004-68.292 56.1815-75.1066 67.4458-78.9222C73.0897-80.834 78.5326-82.0378 83.0898-82.3017C85.3679-82.4336 87.5096-82.336 89.3828-81.9274ZM69.1258-73.9627C58.3897-70.3259 46.5946-63.8728 38.8141-56.0044C37.8813-55.0612 36.9546-54.0289 36.0424-52.9286C31.5729-47.5379 27.6016-40.7015 25.0531-35.222C24.9422-34.9837 24.8344-34.7526 24.7298-34.5282C23.8007-32.5361 23.1201-31.0764 22.7416-29.8268C22.3394-28.4989 22.4455-27.9162 22.6316-27.5441C22.6309-27.5455 22.6332-27.5422 22.6391-27.5336C22.6805-27.4732 22.8997-27.154 23.452-26.4944C24.0095-25.8285 24.764-24.9804 25.6662-24.0022C27.4674-22.0492 29.7942-19.6459 32.1691-17.2709C34.5441-14.896 36.9476-12.5691 38.9005-10.768C39.8788-9.8656 40.7269-9.11104 41.3928-8.55354C42.0527-8.00093 42.3722-7.78188 42.4322-7.74051C42.4406-7.73475 42.4439-7.73248 42.4425-7.73318C42.9511-7.47887 43.3892-7.3984 44.3683-7.68186C45.5594-8.02659 47.1135-8.78482 49.757-10.0939L49.7572-10.0941L49.9836-10.2061L49.9836-10.2061C55.2229-12.8002 62.9677-17.1805 67.819-21.1679C68.9254-22.0773 69.9654-23.0001 70.9177-23.928C78.7268-31.5372 85.178-43.3218 88.8274-54.1041C90.6474-59.481 91.7249-64.4767 91.96-68.4516C92.0776-70.44 91.9792-72.0876 91.7045-73.3615C91.4259-74.6539 91.0077-75.375 90.6404-75.7422C90.2692-76.1134 89.5487-76.5317 88.2668-76.8113C87.0019-77.0872 85.3669-77.1884 83.3926-77.0741C79.4453-76.8456 74.4819-75.777 69.1258-73.9627ZM69.4-41.3386C76.6298-41.3386 82.4909-47.1997 82.4909-54.4295C82.4909-61.6593 76.6298-67.5204 69.4-67.5204C62.1702-67.5204 56.3091-61.6593 56.3091-54.4295C56.3091-47.1997 62.1702-41.3386 69.4-41.3386ZM56.5906-7.73859C57.8938-6.89292 59.3146-5.86188 60.4022-4.77411C61.2924-3.88393 61.9766-2.76631 62.5116-1.77839C62.8741-1.10918 63.2399-0.357936 63.5662 0.312318C63.7128 0.613235 63.8512 0.897744 63.9781 1.15136C64.5037-1.04757 65.0018-4.02531 65.4352-7.0816C65.7537-9.32818 66.032-11.5788 66.257-13.5316C63.1256-11.4313 59.6878-9.41789 56.5906-7.73859ZM28.2963-51.357C26.3735-51.1334 24.1718-50.8585 21.9739-50.5452C18.918-50.1095 15.9409-49.6091 13.7431-49.0816C13.7443-49.0809 13.7455-49.0804 13.7467-49.0799C14.0003-48.953 14.285-48.8144 14.5861-48.6678C15.2563-48.3414 16.0076-47.9757 16.677-47.613C17.6649-47.078 18.7826-46.3938 19.6727-45.5036C20.7201-44.4561 21.7042-43.1113 22.519-41.8612C24.1685-44.9562 26.1286-48.2349 28.2963-51.357ZM11.6453-50.3753C11.6459-50.3753 11.6513-50.3692 11.6597-50.3572C11.6489-50.3692 11.6447-50.3753 11.6453-50.3753ZM65.2737 3.25306C65.2737 3.25376 65.2678 3.24957 65.2558 3.23875C65.2676 3.24713 65.2737 3.25254 65.2737 3.25306Z"/>
   <path class="monochrome-2 hierarchical-2:primary SFSymbolsPreviewFFFFFF" d="M69.4-46.575C73.738-46.575 77.2545-50.0915 77.2545-54.4295C77.2545-58.7675 73.738-62.284 69.4-62.284C65.062-62.284 61.5455-58.7675 61.5455-54.4295C61.5455-50.0915 65.062-46.575 69.4-46.575Z"/>
  </g>
  <g id="Regular-S" transform="matrix(1 0 0 1 1401.75 696)">
   <path class="monochrome-0 hierarchical-0:tertiary SFSymbolsPreview8E8E8E" d="M30.0775-5.34243C30.4127-4.90101 30.9283-4.19689 31.162-3.49033C31.5792-2.22837 31.0108-1.20134 30.7792-0.836191C30.4888-0.378707 30.1159-0.00203818 29.8047 0.278805C29.1607 0.860042 28.2961 1.45856 27.366 2.03107C25.4748 3.19476 22.9229 4.48675 20.2859 5.60541C17.659 6.71971 14.8238 7.71479 12.3745 8.22569C11.1584 8.4793 9.91917 8.63953 8.79248 8.58612C7.74634 8.53673 6.30236 8.28154 5.22578 7.20512C4.14887 6.12817 3.89416 4.68363 3.84492 3.63741C3.79189 2.51054 3.95228 1.27127 4.20626 0.0548636C4.7178-2.39488 5.71351-5.23055 6.82828-7.85781C7.94731-10.495 9.23949-13.0469 10.4029-14.9375C10.975-15.8675 11.5733-16.7317 12.1541-17.3754C12.4346-17.6863 12.8115-18.0595 13.2696-18.3497C13.6347-18.5812 14.6669-19.1518 15.9326-18.7269C16.6321-18.4922 17.3319-17.979 17.7731-17.6435C18.3259-17.223 18.9669-16.6853 19.6462-16.0861C21.0101-14.8829 22.6328-13.3394 24.2015-11.7715C25.7703-10.2037 27.315-8.58165 28.519-7.21757C29.1184-6.53807 29.6567-5.89644 30.0775-5.34243ZM15.3175-12.9029C15.1772-12.6939 15.0252-12.4576 14.8626-12.1933C13.8665-10.5746 12.69-8.26659 11.6487-5.81248C10.6031-3.34825 9.74679-0.860802 9.33207 1.12535C9.12755 2.10473 9.05484 2.84986 9.07404 3.35709C9.58104 3.37646 10.326 3.30385 11.3051 3.09963C13.2907 2.68544 15.7774 1.82982 18.2411 0.784813C20.6947-0.256002 23.0025-1.43226 24.6216-2.42857C24.8883-2.59264 25.1266-2.74607 25.3369-2.88745C25.1184-3.14979 24.8695-3.43919 24.5928-3.75267C23.4823-5.01097 22.0177-6.55081 20.5001-8.06778C18.9822-9.58458 17.4412-11.0487 16.1821-12.1593C15.869-12.4354 15.5797-12.6842 15.3175-12.9029ZM8.64881 3.30403C8.6489 3.30403 8.65146 3.30473 8.65625 3.30665C8.65113 3.30507 8.64872 3.3042 8.64881 3.30403ZM9.12441 3.77495C9.12628 3.77984 9.12708 3.78228 9.12701 3.78246C9.12694 3.78246 9.126 3.78019 9.12441 3.77495Z"/>
   <path class="monochrome-1 hierarchical-1:secondary SFSymbolsPreview4D4D4D" d="M87.2778-81.9274C89.134-81.5225 90.9124-80.7705 92.2381-79.4449C93.5676-78.1154 94.3169-76.3271 94.7184-74.4649C95.1237-72.5841 95.2177-70.4318 95.0823-68.1423C94.8112-63.5615 93.5997-58.0894 91.6825-52.4252C87.8577-41.1251 81.0419-28.5329 72.467-20.1777C71.6469-19.3787 70.7801-18.5936 69.8793-17.8257C69.879-17.8233 69.8788-17.8209 69.8786-17.8184C69.8104-17.1318 69.7104-16.1524 69.5828-14.9775C69.3278-12.6308 68.9607-9.4926 68.5147-6.34659C68.0712-3.21874 67.5395-0.0105909 66.9473 2.44579C66.656 3.65486 66.321 4.80634 65.9271 5.70228C65.7354 6.13795 65.467 6.66158 65.0851 7.11785C64.7477 7.52105 63.928 8.33513 62.6168 8.33495C60.8096 8.33478 59.5991 7.1929 58.9264 6.36486C58.2254 5.50225 57.6529 4.42007 57.1897 3.49358C57.0085 3.1314 56.8427 2.78999 56.6828 2.4615C56.387 1.85286 56.1124 1.28803 55.8022 0.715518C55.3346-0.147958 54.9388-0.727275 54.5945-1.07148C53.5995-2.06656 51.9807-3.16567 50.4704-4.07191C49.9242-4.39954 49.4181-4.68701 48.9988-4.91794C46.9708-3.91709 45.2318-3.08975 43.7191-2.65181C41.7571-2.08402 39.9198-2.08751 37.9956-3.0496C37.3667-3.36413 36.5966-3.97731 35.926-4.53865C35.1697-5.17207 34.2532-5.98912 33.2452-6.91893C31.2254-8.78185 28.7692-11.1606 26.3615-13.5682C23.9538-15.9759 21.5751-18.4321 19.7122-20.452C18.7825-21.46 17.9653-22.3765 17.332-23.1328C16.7707-23.8032 16.1575-24.5733 15.843-25.2024C14.795-27.2985 15.048-29.4397 15.625-31.3446C16.0813-32.8511 16.844-34.5243 17.6539-36.2602C17.428-36.6754 17.1451-37.1797 16.8207-37.7252C15.9367-39.2114 14.8579-40.8081 13.865-41.801C13.5209-42.1452 12.9414-42.541 12.0779-43.0088C11.5055-43.3188 10.9406-43.5935 10.3319-43.8894C10.0034-44.0493 9.66205-44.2151 9.2999-44.3963C8.37324-44.8595 7.29119-45.4322 6.4285-46.133C5.60065-46.8057 4.45848-48.0164 4.45864-49.8236C4.45874-51.1337 5.27155-51.953 5.67429-52.2906C6.13021-52.6727 6.65344-52.9415 7.08879-53.1333C7.98419-53.5278 9.13502-53.8634 10.3433-54.1558C12.7981-54.7496 16.0042-55.2836 19.1299-55.7292C22.2736-56.1774 25.4099-56.5466 27.755-56.8031C28.9289-56.9316 29.9075-57.0323 30.5939-57.1009C30.5987-57.1014 30.6036-57.102 30.6087-57.1025C31.3835-58.003 32.177-58.8685 32.9856-59.6863C41.4954-68.292 54.0765-75.1066 65.3408-78.9222C70.9847-80.834 76.4276-82.0378 80.9848-82.3017C83.2629-82.4336 85.4046-82.336 87.2778-81.9274ZM67.0208-73.9627C56.2847-70.3259 44.4896-63.8728 36.7091-56.0044C35.7763-55.0612 34.8496-54.0289 33.9374-52.9286C29.4679-47.5379 25.4966-40.7015 22.9481-35.222C22.8372-34.9837 22.7294-34.7526 22.6248-34.5282C21.6957-32.5361 21.0151-31.0764 20.6366-29.8268C20.2344-28.4989 20.3405-27.9162 20.5266-27.5441C20.5259-27.5455 20.5282-27.5422 20.5341-27.5336C20.5755-27.4732 20.7947-27.154 21.347-26.4944C21.9045-25.8285 22.659-24.9804 23.5612-24.0022C25.3624-22.0492 27.6892-19.6459 30.0641-17.2709C32.4391-14.896 34.8426-12.5691 36.7955-10.768C37.7738-9.8656 38.6219-9.11104 39.2878-8.55354C39.9477-8.00093 40.2672-7.78188 40.3272-7.74051C40.3356-7.73475 40.3389-7.73248 40.3375-7.73318C40.8461-7.47887 41.2842-7.3984 42.2633-7.68186C43.4544-8.02659 45.0085-8.78482 47.652-10.0939L47.6522-10.0941L47.8786-10.2061L47.8786-10.2061C53.1179-12.8002 60.8627-17.1805 65.714-21.1679C66.8204-22.0773 67.8604-23.0001 68.8127-23.928C76.6218-31.5372 83.073-43.3218 86.7224-54.1041C88.5424-59.481 89.6199-64.4767 89.855-68.4516C89.9726-70.44 89.8742-72.0876 89.5995-73.3615C89.3209-74.6539 88.9027-75.375 88.5354-75.7422C88.1642-76.1134 87.4437-76.5317 86.1618-76.8113C84.8969-77.0872 83.2619-77.1884 81.2876-77.0741C77.3403-76.8456 72.3769-75.777 67.0208-73.9627ZM67.295-41.3386C74.5248-41.3386 80.3859-47.1997 80.3859-54.4295C80.3859-61.6593 74.5248-67.5204 67.295-67.5204C60.0652-67.5204 54.2041-61.6593 54.2041-54.4295C54.2041-47.1997 60.0652-41.3386 67.295-41.3386ZM54.4856-7.73859C55.7888-6.89292 57.2096-5.86188 58.2972-4.77411C59.1874-3.88393 59.8716-2.76631 60.4066-1.77839C60.7691-1.10918 61.1349-0.357936 61.4612 0.312318C61.6078 0.613235 61.7462 0.897744 61.8731 1.15136C62.3987-1.04757 62.8968-4.02531 63.3302-7.0816C63.6487-9.32818 63.927-11.5788 64.152-13.5316C61.0206-11.4313 57.5828-9.41789 54.4856-7.73859ZM26.1913-51.357C24.2685-51.1334 22.0668-50.8585 19.8689-50.5452C16.813-50.1095 13.8359-49.6091 11.6381-49.0816C11.6393-49.0809 11.6405-49.0804 11.6417-49.0799C11.8953-48.953 12.18-48.8144 12.4811-48.6678C13.1513-48.3414 13.9026-47.9757 14.572-47.613C15.5599-47.078 16.6776-46.3938 17.5677-45.5036C18.6151-44.4561 19.5992-43.1113 20.414-41.8612C22.0635-44.9562 24.0236-48.2349 26.1913-51.357ZM9.5403-50.3753C9.54089-50.3753 9.54629-50.3692 9.55474-50.3572C9.54395-50.3692 9.53972-50.3753 9.5403-50.3753ZM63.1687 3.25306C63.1687 3.25376 63.1628 3.24957 63.1508 3.23875C63.1626 3.24713 63.1687 3.25254 63.1687 3.25306Z"/>
   <path class="monochrome-2 hierarchical-2:primary SFSymbolsPreviewFFFFFF" d="M67.295-46.575C71.633-46.575 75.1495-50.0915 75.1495-54.4295C75.1495-58.7675 71.633-62.284 67.295-62.284C62.957-62.284 59.4405-58.7675 59.4405-54.4295C59.4405-50.0915 62.957-46.575 67.295-46.575Z"/>
  </g>
  <g id="Ultralight-S" transform="matrix(1 0 0 1 515.351 696)">
   <path class="monochrome-0 hierarchical-0:tertiary SFSymbolsPreview8E8E8E" d="M26.3425-5.34243C26.6777-4.90101 27.1933-4.19689 27.427-3.49033C27.8442-2.22837 27.2758-1.20134 27.0442-0.836191C26.7538-0.378707 26.3809-0.00203818 26.0697 0.278805C25.4257 0.860042 24.5611 1.45856 23.631 2.03107C21.7398 3.19476 19.1879 4.48675 16.5509 5.60541C13.924 6.71971 11.0888 7.71479 8.63946 8.22569C7.42339 8.4793 6.18417 8.63953 5.05748 8.58612C4.01134 8.53673 2.56736 8.28154 1.49078 7.20512C0.413871 6.12817 0.159156 4.68363 0.109917 3.63741C0.0568902 2.51054 0.21728 1.27127 0.471261 0.0548636C0.982801-2.39488 1.97851-5.23055 3.09328-7.85781C4.21231-10.495 5.50449-13.0469 6.66789-14.9375C7.24005-15.8675 7.8383-16.7317 8.41912-17.3754C8.69965-17.6863 9.07647-18.0595 9.5346-18.3497C9.89968-18.5812 10.9319-19.1518 12.1976-18.7269C12.8971-18.4922 13.5969-17.979 14.0381-17.6435C14.5909-17.223 15.2319-16.6853 15.9112-16.0861C17.2751-14.8829 18.8978-13.3394 20.4665-11.7715C22.0353-10.2037 23.58-8.58165 24.784-7.21757C25.3834-6.53807 25.9217-5.89644 26.3425-5.34243ZM11.5825-12.9029C11.4422-12.6939 11.2902-12.4576 11.1276-12.1933C10.1315-10.5746 8.95497-8.26659 7.91367-5.81248C6.86811-3.34825 6.01179-0.860802 5.59707 1.12535C5.39255 2.10473 5.31984 2.84986 5.33904 3.35709C5.84604 3.37646 6.59102 3.30385 7.57013 3.09963C9.55565 2.68544 12.0424 1.82982 14.5061 0.784813C16.9597-0.256002 19.2675-1.43226 20.8866-2.42857C21.1533-2.59264 21.3916-2.74607 21.6019-2.88745C21.3834-3.14979 21.1345-3.43919 20.8578-3.75267C19.7473-5.01097 18.2827-6.55081 16.7651-8.06778C15.2472-9.58458 13.7062-11.0487 12.4471-12.1593C12.134-12.4354 11.8447-12.6842 11.5825-12.9029ZM4.91381 3.30403C4.9139 3.30403 4.91646 3.30473 4.92125 3.30665C4.91613 3.30507 4.91372 3.3042 4.91381 3.30403ZM5.38941 3.77495C5.39128 3.77984 5.39208 3.78228 5.39201 3.78246C5.39194 3.78246 5.391 3.78019 5.38941 3.77495Z"/>
   <path class="monochrome-1 hierarchical-1:secondary SFSymbolsPreview4D4D4D" d="M83.5428-81.9274C85.399-81.5225 87.1774-80.7705 88.5031-79.4449C89.8326-78.1154 90.5819-76.3271 90.9834-74.4649C91.3887-72.5841 91.4827-70.4318 91.3473-68.1423C91.0762-63.5615 89.8647-58.0894 87.9475-52.4252C84.1227-41.1251 77.3069-28.5329 68.732-20.1777C67.9119-19.3787 67.0451-18.5936 66.1443-17.8257C66.144-17.8233 66.1438-17.8209 66.1436-17.8184C66.0754-17.1318 65.9754-16.1524 65.8478-14.9775C65.5928-12.6308 65.2257-9.4926 64.7797-6.34659C64.3362-3.21874 63.8045-0.0105909 63.2123 2.44579C62.921 3.65486 62.586 4.80634 62.1921 5.70228C62.0004 6.13795 61.732 6.66158 61.3501 7.11785C61.0127 7.52105 60.193 8.33513 58.8818 8.33495C57.0746 8.33478 55.8641 7.1929 55.1914 6.36486C54.4904 5.50225 53.9179 4.42007 53.4547 3.49358C53.2735 3.1314 53.1077 2.78999 52.9478 2.4615C52.652 1.85286 52.3774 1.28803 52.0672 0.715518C51.5996-0.147958 51.2038-0.727275 50.8595-1.07148C49.8645-2.06656 48.2457-3.16567 46.7354-4.07191C46.1892-4.39954 45.6831-4.68701 45.2638-4.91794C43.2358-3.91709 41.4968-3.08975 39.9841-2.65181C38.0221-2.08402 36.1848-2.08751 34.2606-3.0496C33.6317-3.36413 32.8616-3.97731 32.191-4.53865C31.4347-5.17207 30.5182-5.98912 29.5102-6.91893C27.4904-8.78185 25.0342-11.1606 22.6265-13.5682C20.2188-15.9759 17.8401-18.4321 15.9772-20.452C15.0475-21.46 14.2303-22.3765 13.597-23.1328C13.0357-23.8032 12.4225-24.5733 12.108-25.2024C11.06-27.2985 11.313-29.4397 11.89-31.3446C12.3463-32.8511 13.109-34.5243 13.9189-36.2602C13.693-36.6754 13.4101-37.1797 13.0857-37.7252C12.2017-39.2114 11.1229-40.8081 10.13-41.801C9.78586-42.1452 9.20642-42.541 8.34293-43.0088C7.77051-43.3188 7.20563-43.5935 6.59692-43.8894C6.26837-44.0493 5.92705-44.2151 5.5649-44.3963C4.63824-44.8595 3.55619-45.4322 2.6935-46.133C1.86565-46.8057 0.723479-48.0164 0.723636-49.8236C0.723741-51.1337 1.53655-51.953 1.93929-52.2906C2.39521-52.6727 2.91844-52.9415 3.35379-53.1333C4.24919-53.5278 5.40002-53.8634 6.60831-54.1558C9.06309-54.7496 12.2692-55.2836 15.3949-55.7292C18.5386-56.1774 21.6749-56.5466 24.02-56.8031C25.1939-56.9316 26.1725-57.0323 26.8589-57.1009C26.8637-57.1014 26.8686-57.102 26.8737-57.1025C27.6485-58.003 28.442-58.8685 29.2506-59.6863C37.7604-68.292 50.3415-75.1066 61.6058-78.9222C67.2497-80.834 72.6926-82.0378 77.2498-82.3017C79.5279-82.4336 81.6696-82.336 83.5428-81.9274ZM63.2858-73.9627C52.5497-70.3259 40.7546-63.8728 32.9741-56.0044C32.0413-55.0612 31.1146-54.0289 30.2024-52.9286C25.7329-47.5379 21.7616-40.7015 19.2131-35.222C19.1022-34.9837 18.9944-34.7526 18.8898-34.5282C17.9607-32.5361 17.2801-31.0764 16.9016-29.8268C16.4994-28.4989 16.6055-27.9162 16.7916-27.5441C16.7909-27.5455 16.7932-27.5422 16.7991-27.5336C16.8405-27.4732 17.0597-27.154 17.612-26.4944C18.1695-25.8285 18.924-24.9804 19.8262-24.0022C21.6274-22.0492 23.9542-19.6459 26.3291-17.2709C28.7041-14.896 31.1076-12.5691 33.0605-10.768C34.0388-9.8656 34.8869-9.11104 35.5528-8.55354C36.2127-8.00093 36.5322-7.78188 36.5922-7.74051C36.6006-7.73475 36.6039-7.73248 36.6025-7.73318C37.1111-7.47887 37.5492-7.3984 38.5283-7.68186C39.7194-8.02659 41.2735-8.78482 43.917-10.0939L43.9172-10.0941L44.1436-10.2061L44.1436-10.2061C49.3829-12.8002 57.1277-17.1805 61.979-21.1679C63.0854-22.0773 64.1254-23.0001 65.0777-23.928C72.8868-31.5372 79.338-43.3218 82.9874-54.1041C84.8074-59.481 85.8849-64.4767 86.12-68.4516C86.2376-70.44 86.1392-72.0876 85.8645-73.3615C85.5859-74.6539 85.1677-75.375 84.8004-75.7422C84.4292-76.1134 83.7087-76.5317 82.4268-76.8113C81.1619-77.0872 79.5269-77.1884 77.5526-77.0741C73.6053-76.8456 68.6419-75.777 63.2858-73.9627ZM63.56-41.3386C70.7898-41.3386 76.6509-47.1997 76.6509-54.4295C76.6509-61.6593 70.7898-67.5204 63.56-67.5204C56.3302-67.5204 50.4691-61.6593 50.4691-54.4295C50.4691-47.1997 56.3302-41.3386 63.56-41.3386ZM50.7506-7.73859C52.0538-6.89292 53.4746-5.86188 54.5622-4.77411C55.4524-3.88393 56.1366-2.76631 56.6716-1.77839C57.0341-1.10918 57.3999-0.357936 57.7262 0.312318C57.8728 0.613235 58.0112 0.897744 58.1381 1.15136C58.6637-1.04757 59.1618-4.02531 59.5952-7.0816C59.9137-9.32818 60.192-11.5788 60.417-13.5316C57.2856-11.4313 53.8478-9.41789 50.7506-7.73859ZM22.4563-51.357C20.5335-51.1334 18.3318-50.8585 16.1339-50.5452C13.078-50.1095 10.1009-49.6091 7.90314-49.0816C7.90431-49.0809 7.90548-49.0804 7.90667-49.0799C8.16027-48.953 8.445-48.8144 8.74608-48.6678C9.41635-48.3414 10.1676-47.9757 10.837-47.613C11.8249-47.078 12.9426-46.3938 13.8327-45.5036C14.8801-44.4561 15.8642-43.1113 16.679-41.8612C18.3285-44.9562 20.2886-48.2349 22.4563-51.357ZM5.8053-50.3753C5.80589-50.3753 5.81129-50.3692 5.81974-50.3572C5.80895-50.3692 5.80472-50.3753 5.8053-50.3753ZM59.4337 3.25306C59.4337 3.25376 59.4278 3.24957 59.4158 3.23875C59.4276 3.24713 59.4337 3.25254 59.4337 3.25306Z"/>
   <path class="monochrome-2 hierarchical-2:primary SFSymbolsPreviewFFFFFF" d="M63.56-46.575C67.898-46.575 71.4145-50.0915 71.4145-54.4295C71.4145-58.7675 67.898-62.284 63.56-62.284C59.222-62.284 55.7055-58.7675 55.7055-54.4295C55.7055-50.0915 59.222-46.575 63.56-46.575Z"/>
  </g>
 </g>
</svg>
